<svg data-name="67ff1bc9-c8c8-46f2-bc73-1bc751309f18" xmlns="http://www.w3.org/2000/svg" width="39.65" height="1434.06" viewBox="0 0 39.65 1434.06">
  <title>
    sprite-temps-40
  </title>
  <path fill="none" d="M0 1052.96h39.65v31.72H0zM0 1175.54h39.65v31.72H0zM0 861.51h39.65v31.72H0zM0 415.6h39.65v31.72H0zM0 0h39.65v31.72H0zM0 32.8h39.65v31.72H0z"/>
  <path fill="none" d="M0 63.48h39.65V95.2H0z"/>
  <circle cx="19.83" cy="15.86" r="11.33" style="isolation:isolate" fill="#efeb60" opacity=".51"/>
  <circle cx="19.83" cy="15.86" r="8.64" fill="#f6b31a" stroke="#feea02" stroke-miterlimit="10"/>
  <circle cx="20.39" cy="48.66" r="11.33" style="isolation:isolate" fill="#43444d" opacity=".18"/>
  <path d="M20.18 40.8a7.62 7.62 0 0 1 2.66-.14 7.63 7.63 0 0 0 3.28 14 7.64 7.64 0 1 1-5.94-13.82z" style="isolation:isolate" fill="#626472" opacity=".18"/>
  <path d="M17.78 41.32a7.62 7.62 0 0 1 2.66-.14 7.63 7.63 0 0 0 3.28 14 7.64 7.64 0 1 1-5.94-13.86z" fill="#fdfce9"/>
  <path d="M25.49 50.14a.44.44 0 0 0 .44-.44v-1.5a.44.44 0 0 0-.88 0v1.5a.44.44 0 0 0 .44.44z" fill="#fff"/>
  <path d="M26.65 49a.44.44 0 0 0-.44-.44h-1.5a.44.44 0 0 0 0 .88h1.5a.44.44 0 0 0 .44-.44zM11.27 42.74a.44.44 0 0 0 .44-.44v-1.5a.44.44 0 0 0-.88 0v1.52a.44.44 0 0 0 .44.42z" fill="#fff"/>
  <path d="M12.46 41.55a.44.44 0 0 0-.44-.44h-1.5a.44.44 0 1 0 0 .88H12a.44.44 0 0 0 .44-.44zM23.73 41.55a.44.44 0 0 0 .44-.44v-1.5a.44.44 0 0 0-.88 0v1.5a.44.44 0 0 0 .44.44z" fill="#fff"/>
  <path d="M24.92 40.32a.44.44 0 0 0-.44-.44H23a.44.44 0 0 0 0 .88h1.5a.44.44 0 0 0 .44-.44z" fill="#fff"/>
  <path fill="none" d="M0 288.92h39.65v31.72H0zM0 257.18h39.65v31.72H0zM0 159.31h39.65v31.72H0zM0 192.42h39.65v31.72H0zM0 224.64h39.65v31.72H0zM0 95.71h39.65v31.72H0z"/>
  <path fill="none" d="M0 128.09h39.65v31.72H0z"/>
  <circle cx="20.39" cy="111.57" r="11.33" style="isolation:isolate" fill="#43444d" opacity=".18"/>
  <path d="M25.49 113.06a.44.44 0 0 0 .44-.44v-1.5a.44.44 0 0 0-.88 0v1.5a.44.44 0 0 0 .44.44z" fill="#fff"/>
  <path d="M26.65 111.86a.44.44 0 0 0-.44-.44h-1.5a.44.44 0 1 0 0 .88h1.5a.44.44 0 0 0 .44-.44zM11.27 105.65a.44.44 0 0 0 .44-.44v-1.5a.44.44 0 1 0-.88 0v1.5a.44.44 0 0 0 .44.44z" fill="#fff"/>
  <path d="M12.46 104.46A.44.44 0 0 0 12 104h-1.5a.44.44 0 0 0 0 .88H12a.44.44 0 0 0 .46-.42zM23.73 104.46a.44.44 0 0 0 .44-.44v-1.5a.44.44 0 0 0-.88 0V104a.44.44 0 0 0 .44.44z" fill="#fff"/>
  <path d="M24.92 103.27a.44.44 0 0 0-.44-.44H23a.44.44 0 0 0 0 .88h1.5a.44.44 0 0 0 .42-.44z" fill="#fff"/>
  <path d="M20.75 104.21a7.62 7.62 0 0 1 2.66-.14 7.63 7.63 0 0 0 3.28 14 7.64 7.64 0 1 1-5.94-13.82z" style="isolation:isolate" fill="#626472" opacity=".18"/>
  <path d="M18.36 104.32a7.62 7.62 0 0 1 2.66-.14 7.63 7.63 0 0 0 3.28 14 7.64 7.64 0 1 1-5.94-13.86z" fill="#fdfce9"/>
  <g opacity=".9" fill="#f4f4f4">
    <path d="M7.41 108.39h16.82a1.29 1.29 0 0 1 1.29 1.29 1.29 1.29 0 0 1-1.26 1.32H7.41a1.29 1.29 0 0 1-1.29-1.29 1.29 1.29 0 0 1 1.26-1.32zM15.42 113.52h16.82a1.29 1.29 0 0 1 1.29 1.29 1.29 1.29 0 0 1-1.29 1.29H15.42a1.29 1.29 0 0 1-1.29-1.29 1.29 1.29 0 0 1 1.29-1.29z"/>
  </g>
  <circle cx="19.83" cy="79.68" r="11.33" style="isolation:isolate" fill="#efeb60" opacity=".51"/>
  <circle cx="19.83" cy="79.68" r="8.64" fill="#f6b31a" stroke="#feea02" stroke-miterlimit="10"/>
  <g opacity=".9" fill="#f4f4f4">
    <path d="M7.41 76.05h16.82a1.29 1.29 0 0 1 1.29 1.29 1.29 1.29 0 0 1-1.29 1.29H7.41a1.29 1.29 0 0 1-1.29-1.29 1.29 1.29 0 0 1 1.29-1.29zM15.42 81.18h16.82a1.29 1.29 0 0 1 1.29 1.29 1.29 1.29 0 0 1-1.29 1.29H15.42a1.29 1.29 0 0 1-1.29-1.29 1.29 1.29 0 0 1 1.29-1.29z"/>
  </g>
  <circle cx="19.77" cy="143.57" r="9.91" style="isolation:isolate" fill="#efeb60" opacity=".51"/>
  <circle cx="19.77" cy="143.57" r="7.56" fill="#f6b31a" stroke="#feea02" stroke-miterlimit="10"/>
  <path d="M31 145.22a6.41 6.41 0 0 0-11.78 2.4 3.7 3.7 0 0 0 .09 7.39h11.14a4.91 4.91 0 0 0 .54-9.79zM6.65 139.74a3.47 3.47 0 0 1 2.92-1.55A3.4 3.4 0 0 1 13 141a1.9 1.9 0 1 1 .28 3.79H7a2.52 2.52 0 0 1-.29-5z" style="isolation:isolate" fill="#fff" opacity=".8"/>
  <circle cx="20.39" cy="174.94" r="11.33" style="isolation:isolate" fill="#43444d" opacity=".18"/>
  <path d="M25.49 176.42a.44.44 0 0 0 .44-.44v-1.5a.44.44 0 1 0-.88 0V176a.44.44 0 0 0 .44.44z" fill="#fff"/>
  <path d="M26.65 175.23a.44.44 0 0 0-.44-.44h-1.5a.44.44 0 0 0 0 .88h1.5a.44.44 0 0 0 .44-.44zM11.27 169a.44.44 0 0 0 .44-.44v-1.5a.44.44 0 1 0-.88 0v1.5a.44.44 0 0 0 .44.44z" fill="#fff"/>
  <path d="M12.46 167.83a.44.44 0 0 0-.44-.44h-1.5a.44.44 0 0 0 0 .88H12a.44.44 0 0 0 .44-.44zM23.73 167.83a.44.44 0 0 0 .44-.44v-1.5a.44.44 0 1 0-.88 0v1.5a.44.44 0 0 0 .44.44z" fill="#fff"/>
  <path d="M24.92 166.63a.44.44 0 0 0-.44-.44H23a.44.44 0 0 0 0 .88h1.5a.44.44 0 0 0 .44-.44z" fill="#fff"/>
  <path d="M19.8 167.79a7.62 7.62 0 0 1 2.66-.14 7.63 7.63 0 0 0 3.28 14 7.64 7.64 0 1 1-5.94-13.82z" style="isolation:isolate" fill="#626472" opacity=".18"/>
  <path d="M18.36 167.65a7.62 7.62 0 0 1 2.66-.14 7.63 7.63 0 0 0 3.28 14 7.64 7.64 0 1 1-5.94-13.82z" fill="#fdfce9"/>
  <path d="M31 176.91a6.41 6.41 0 0 0-11.78 2.41 3.7 3.7 0 0 0 .09 7.39h11.14a4.91 4.91 0 0 0 .54-9.79zM6.65 171.43a3.47 3.47 0 0 1 2.92-1.55 3.4 3.4 0 0 1 3.4 2.79 1.9 1.9 0 1 1 .28 3.79H7a2.52 2.52 0 0 1-.29-5z" style="isolation:isolate" fill="#fff" opacity=".8"/>
  <g opacity=".3" fill="#231f20">
    <path d="M31.46 206.9a6.4 6.4 0 0 0-11.72 2.1 3.74 3.74 0 0 1 2.91 1.83l-.49.28a3.71 3.71 0 0 0-3.67-1.59 3.69 3.69 0 0 0 1.32 7.14H31a4.91 4.91 0 0 0 .54-9.79zM16 204.32a4 4 0 0 0-4-3.32 4.14 4.14 0 0 0-3.31 1.54 3.1 3.1 0 0 1 2.44 1.58l-.52.23C10 203 8 203 7.66 203a3 3 0 0 0-2 2.8 3.07 3.07 0 0 0 3.14 3h7.12a2.26 2.26 0 1 0 .06-4.52z"/>
  </g>
  <path d="M30.33 205.77a6.4 6.4 0 0 0-11.68 2.13 3.74 3.74 0 0 1 2.87 1.83L21 210a3.71 3.71 0 0 0-3.67-1.59 3.69 3.69 0 0 0 1.29 7.14h11.19a4.91 4.91 0 0 0 .54-9.79zM14.83 203.18a4 4 0 0 0-4-3.32 4.14 4.14 0 0 0-3.25 1.55A3.1 3.1 0 0 1 10 203l-.52.23c-.59-1.3-2.6-1.33-2.91-1.32a3 3 0 0 0-2 2.8 3.07 3.07 0 0 0 3.14 3h7.12a2.26 2.26 0 1 0 .06-4.52z" fill="#d8d9d8"/>
  <circle cx="19.83" cy="240.45" r="11.33" style="isolation:isolate" fill="#efeb60" opacity=".51"/>
  <circle cx="19.83" cy="240.45" r="8.64" fill="#f6b31a" stroke="#feea02" stroke-miterlimit="10"/>
  <rect x="7.63" y="242.5" width="19.4" height="2.58" rx="1.29" ry="1.29" fill="#bcbcbc"/>
  <rect x="9.14" y="249.3" width="19.4" height="2.58" rx="1.29" ry="1.29" fill="#bcbcbc"/>
  <rect x="13.75" y="245.93" width="19.4" height="2.58" rx="1.29" ry="1.29" fill="#bcbcbc"/>
  <rect x="6.5" y="241.37" width="19.4" height="2.58" rx="1.29" ry="1.29" fill="#f4f4f4"/>
  <rect x="8" y="248.17" width="19.4" height="2.58" rx="1.29" ry="1.29" fill="#f4f4f4"/>
  <rect x="12.62" y="244.79" width="19.4" height="2.58" rx="1.29" ry="1.29" fill="#f4f4f4"/>
  <path fill="none" d="M0 259.37h36.38v29.11H0z"/>
  <circle cx="18.71" cy="273.27" r="10.39" style="isolation:isolate" fill="#43444d" opacity=".18"/>
  <path d="M23.39 274.63a.41.41 0 0 0 .4-.41v-1.38a.4.4 0 0 0-.81 0v1.38a.4.4 0 0 0 .39.41z" fill="#fff"/>
  <path d="M24.49 273.53a.4.4 0 0 0-.4-.4H22.7a.4.4 0 1 0 0 .81h1.38a.4.4 0 0 0 .41-.39zM10.34 267.84a.41.41 0 0 0 .4-.41V266a.41.41 0 0 0-.81 0v1.38a.4.4 0 0 0 .39.41z" fill="#fff"/>
  <path d="M11.44 266.74a.4.4 0 0 0-.4-.4H9.65a.4.4 0 0 0 0 .81H11a.4.4 0 0 0 .41-.39s.03-.01.03-.02z" fill="#fff"/>
  <path d="M18.25 266.32a7.06 7.06 0 0 1 2.46-.13 7.07 7.07 0 0 0 3 12.93 7.08 7.08 0 1 1-5.46-12.8z" style="isolation:isolate" fill="#626472" opacity=".18"/>
  <path d="M21.77 266.74a.41.41 0 0 0 .4-.41V265a.4.4 0 0 0-.81 0v1.37a.4.4 0 0 0 .38.42z" fill="#fff"/>
  <path d="M22.87 265.65a.4.4 0 0 0-.4-.4h-1.39a.4.4 0 0 0 0 .81h1.38a.4.4 0 0 0 .41-.39z" fill="#fff"/>
  <path d="M16.84 266.58a7 7 0 0 1 2.44-.13 7 7 0 0 0 3 12.8 7 7 0 1 1-5.45-12.68z" fill="#fdfce9"/>
  <path d="M8.19 276.63h15.42a1.19 1.19 0 0 1 1.19 1.18 1.19 1.19 0 0 1-1.19 1.19H8.19A1.19 1.19 0 0 1 7 277.82a1.19 1.19 0 0 1 1.19-1.19zM9.57 282.88H25a1.19 1.19 0 0 1 1.19 1.18 1.19 1.19 0 0 1-1.19 1.19H9.57a1.19 1.19 0 0 1-1.19-1.18 1.19 1.19 0 0 1 1.19-1.19zM13.81 279.78h15.42a1.19 1.19 0 0 1 1.19 1.22 1.19 1.19 0 0 1-1.19 1.18H13.81a1.19 1.19 0 0 1-1.19-1.18 1.19 1.19 0 0 1 1.16-1.22z" fill="#bcbcbc"/>
  <path d="M7.15 275.59h15.42a1.19 1.19 0 0 1 1.19 1.18 1.19 1.19 0 0 1-1.15 1.23H7.15A1.19 1.19 0 0 1 6 276.77a1.19 1.19 0 0 1 1.15-1.18zM8.53 281.83H24a1.19 1.19 0 0 1 1.14 1.17 1.19 1.19 0 0 1-1.19 1.18H8.53A1.19 1.19 0 0 1 7.34 283a1.19 1.19 0 0 1 1.19-1.17zM12.77 278.74h15.42a1.19 1.19 0 0 1 1.19 1.18 1.19 1.19 0 0 1-1.19 1.18H12.77a1.19 1.19 0 0 1-1.19-1.18 1.19 1.19 0 0 1 1.19-1.18z" fill="#f4f4f4"/>
  <path d="M8.92 300.65h16.82a1.29 1.29 0 0 1 1.26 1.29 1.29 1.29 0 0 1-1.29 1.29H8.92a1.29 1.29 0 0 1-1.29-1.29 1.29 1.29 0 0 1 1.29-1.29zM10.43 307.45h16.82a1.29 1.29 0 0 1 1.29 1.29 1.29 1.29 0 0 1-1.29 1.26H10.43a1.29 1.29 0 0 1-1.29-1.29 1.29 1.29 0 0 1 1.29-1.26zM15 304.08h16.86a1.29 1.29 0 0 1 1.29 1.29 1.29 1.29 0 0 1-1.29 1.29H15a1.29 1.29 0 0 1-1.29-1.29 1.29 1.29 0 0 1 1.29-1.29z" fill="#bcbcbc"/>
  <path d="M7.79 299.52h16.82a1.29 1.29 0 0 1 1.29 1.29 1.29 1.29 0 0 1-1.29 1.29H7.79a1.29 1.29 0 0 1-1.29-1.29 1.29 1.29 0 0 1 1.29-1.29zM9.29 306.32h16.82a1.29 1.29 0 0 1 1.29 1.29 1.29 1.29 0 0 1-1.29 1.29H9.29A1.29 1.29 0 0 1 8 307.61a1.29 1.29 0 0 1 1.29-1.29zM13.91 302.94h16.82a1.29 1.29 0 0 1 1.27 1.29 1.29 1.29 0 0 1-1.29 1.29h-16.8a1.29 1.29 0 0 1-1.29-1.29 1.29 1.29 0 0 1 1.29-1.29z" fill="#f4f4f4"/>
  <path fill="none" d="M0 319.3h39.65v31.72H0z"/>
  <path d="M8.77 326.81h17.12A1.14 1.14 0 0 1 27 328a1.14 1.14 0 0 1-1.14 1.14H8.77A1.14 1.14 0 0 1 7.63 328a1.14 1.14 0 0 1 1.14-1.14zM10.28 332.78H27.4a1.14 1.14 0 0 1 1.14 1.14A1.14 1.14 0 0 1 27.4 335H10.28a1.14 1.14 0 0 1-1.14-1.14 1.14 1.14 0 0 1 1.14-1.08zM14.89 329.82H32a1.14 1.14 0 0 1 1.15 1.13v.05a1.14 1.14 0 0 1-1.15 1.09H14.89a1.14 1.14 0 0 1-1.14-1.09 1.14 1.14 0 0 1 1.1-1.18z" fill="#bcbcbc"/>
  <path d="M7.64 325.81h17.12A1.14 1.14 0 0 1 25.9 327a1.14 1.14 0 0 1-1.14 1.14H7.64A1.14 1.14 0 0 1 6.5 327a1.14 1.14 0 0 1 1.14-1.14zM9.14 331.79h17.12a1.14 1.14 0 0 1 1.14 1.14 1.14 1.14 0 0 1-1.14 1.14H9.14A1.14 1.14 0 0 1 8 332.93a1.14 1.14 0 0 1 1.14-1.14zM13.76 328.82h17.12A1.14 1.14 0 0 1 32 330a1.14 1.14 0 0 1-1.14 1.14h-17.1a1.14 1.14 0 0 1-1.14-1.14 1.14 1.14 0 0 1 1.1-1.18z" fill="#f4f4f4"/>
  <path d="M8.77 336.27h17.12A1.14 1.14 0 0 1 27 337.4a1.14 1.14 0 0 1-1.14 1.14H8.77a1.14 1.14 0 0 1-1.14-1.14 1.14 1.14 0 0 1 1.14-1.13zM10.28 342.24H27.4a1.14 1.14 0 0 1 1.14 1.14 1.14 1.14 0 0 1-1.14 1.14H10.28a1.14 1.14 0 0 1-1.14-1.14 1.14 1.14 0 0 1 1.14-1.14zM14.89 339.28H32a1.14 1.14 0 0 1 1.14 1.14 1.14 1.14 0 0 1-1.14 1.13H14.89a1.14 1.14 0 0 1-1.14-1.14 1.14 1.14 0 0 1 1.14-1.13z" fill="#bcbcbc"/>
  <path d="M7.64 335.27h17.12a1.14 1.14 0 0 1 1.14 1.14 1.14 1.14 0 0 1-1.14 1.14H7.64a1.14 1.14 0 0 1-1.14-1.14 1.14 1.14 0 0 1 1.14-1.14zM9.14 341.25h17.12a1.14 1.14 0 0 1 1.14 1.14 1.14 1.14 0 0 1-1.14 1.14H9.14A1.14 1.14 0 0 1 8 342.39a1.14 1.14 0 0 1 1.14-1.14zM13.76 338.28h17.12a1.14 1.14 0 0 1 1.12 1.14 1.14 1.14 0 0 1-1.14 1.14h-17.1a1.14 1.14 0 0 1-1.14-1.14 1.14 1.14 0 0 1 1.14-1.14z" fill="#f4f4f4"/>
  <path fill="none" d="M0 351.41h39.65v31.72H0z"/>
  <path fill="none" d="M0 382.99h39.65v31.72H0z"/>
  <path d="M8.77 358.75h17.12a1.14 1.14 0 0 1 1.11 1.14 1.14 1.14 0 0 1-1.11 1.11H8.77a1.14 1.14 0 0 1-1.14-1.14 1.14 1.14 0 0 1 1.14-1.11zM10.28 364.73H27.4a1.14 1.14 0 0 1 1.14 1.14A1.14 1.14 0 0 1 27.4 367H10.28a1.14 1.14 0 0 1-1.14-1.14 1.14 1.14 0 0 1 1.14-1.13zM14.89 361.76H32a1.14 1.14 0 0 1 1.14 1.14A1.14 1.14 0 0 1 32 364H14.89a1.14 1.14 0 0 1-1.14-1.14 1.14 1.14 0 0 1 1.14-1.1z" fill="#bcbcbc"/>
  <path d="M7.64 357.76h17.12a1.14 1.14 0 0 1 1.14 1.14 1.14 1.14 0 0 1-1.14 1.1H7.64a1.14 1.14 0 0 1-1.14-1.14 1.14 1.14 0 0 1 1.14-1.1zM9.14 363.73h17.12a1.14 1.14 0 0 1 1.14 1.14 1.14 1.14 0 0 1-1.14 1.13H9.14A1.14 1.14 0 0 1 8 364.86a1.14 1.14 0 0 1 1.14-1.13zM13.76 360.77h17.12A1.14 1.14 0 0 1 32 361.9a1.14 1.14 0 0 1-1.12 1.1H13.76a1.14 1.14 0 0 1-1.14-1.14 1.14 1.14 0 0 1 1.14-1.09z" fill="#f4f4f4"/>
  <path d="M8.77 368.21h17.12a1.14 1.14 0 0 1 1.11 1.14 1.14 1.14 0 0 1-1.14 1.14H8.77a1.14 1.14 0 0 1-1.14-1.14 1.14 1.14 0 0 1 1.14-1.14zM10.28 374.19H27.4a1.14 1.14 0 0 1 1.14 1.14 1.14 1.14 0 0 1-1.14 1.14H10.28a1.14 1.14 0 0 1-1.14-1.14 1.14 1.14 0 0 1 1.14-1.14zM14.89 371.22H32a1.14 1.14 0 0 1 1.14 1.14 1.14 1.14 0 0 1-1.14 1.13H14.89a1.14 1.14 0 0 1-1.14-1.14 1.14 1.14 0 0 1 1.14-1.13z" fill="#bcbcbc"/>
  <path d="M7.64 367.22h17.12a1.14 1.14 0 0 1 1.14 1.14 1.14 1.14 0 0 1-1.14 1.14H7.64a1.14 1.14 0 0 1-1.14-1.14 1.14 1.14 0 0 1 1.14-1.14zM9.14 373.19h17.12a1.14 1.14 0 0 1 1.14 1.14 1.14 1.14 0 0 1-1.14 1.14H9.14A1.14 1.14 0 0 1 8 374.33a1.14 1.14 0 0 1 1.14-1.14zM13.76 370.23h17.12a1.14 1.14 0 0 1 1.12 1.14 1.14 1.14 0 0 1-1.14 1.14h-17.1a1.14 1.14 0 0 1-1.14-1.14 1.14 1.14 0 0 1 1.14-1.14z" fill="#f4f4f4"/>
  <path fill="#cf2d28" d="M16.91 370.43h15.61v7.41H16.91z"/>
  <path d="M23.19 376.66a5.18 5.18 0 0 1-1.71.31 2.62 2.62 0 0 1-2.83-2.82 2.79 2.79 0 0 1 2.74-2.84h.26a3.44 3.44 0 0 1 1.39.26l-.17.59a2.88 2.88 0 0 0-1.23-.24 2.08 2.08 0 0 0-2.24 2.24 2 2 0 0 0 1.84 2.15h.29a2.35 2.35 0 0 0 1-.15v-1.66h-1.18v-.58h1.83zM25 371.32v5.57h-.72v-5.57zM27.48 376.91l-1.83-5.59h.78l.87 2.74c.24.75.45 1.43.59 2.08.16-.64.39-1.35.64-2.07l.94-2.75h.77l-2 5.57zM30.22 376.48a.49.49 0 0 1 .46-.52.52.52 0 1 1-.5.54z" fill="#fff"/>
  <g opacity=".3" fill="#231f20">
    <path d="M31.24 394a6.4 6.4 0 0 0-11.72 2.13 3.74 3.74 0 0 1 2.87 1.87l-.49.28a3.71 3.71 0 0 0-3.67-1.59 3.69 3.69 0 0 0 1.32 7.14h11.16a4.91 4.91 0 0 0 .54-9.79zM15.74 391.4a4 4 0 0 0-4-3.32 4.14 4.14 0 0 0-3.25 1.55 3.1 3.1 0 0 1 2.44 1.58l-.52.23c-.59-1.3-2.6-1.33-2.91-1.32a3 3 0 0 0-2 2.8 3.07 3.07 0 0 0 3.14 3h7a2.26 2.26 0 0 0 .06-4.52z"/>
  </g>
  <path d="M30.11 392.86A6.4 6.4 0 0 0 18.39 395a3.74 3.74 0 0 1 2.87 1.83l-.49.28a3.71 3.71 0 0 0-3.67-1.59 3.69 3.69 0 0 0 1.32 7.14h11.14a4.91 4.91 0 0 0 .54-9.79zM14.65 390.26a4 4 0 0 0-4-3.32 4.14 4.14 0 0 0-3.25 1.55 3.1 3.1 0 0 1 2.44 1.58l-.52.23c-.59-1.3-2.6-1.3-2.91-1.3a3 3 0 0 0-2 2.8 3.07 3.07 0 0 0 3.14 3h7a2.26 2.26 0 0 0 .06-4.52z" fill="#d8d9d8"/>
  <circle cx="30.36" cy="404.95" r=".71" fill="#77ccf2"/>
  <circle cx="29.23" cy="406.65" r=".71" fill="#77ccf2"/>
  <circle cx="28.1" cy="408.35" r=".71" fill="#77ccf2"/>
  <circle cx="26.96" cy="410.05" r=".71" fill="#77ccf2"/>
  <circle cx="24.13" cy="404.95" r=".71" fill="#77ccf2"/>
  <circle cx="23" cy="406.65" r=".71" fill="#77ccf2"/>
  <circle cx="21.86" cy="408.35" r=".71" fill="#77ccf2"/>
  <circle cx="20.73" cy="410.05" r=".71" fill="#77ccf2"/>
  <circle cx="17.9" cy="404.95" r=".71" fill="#77ccf2"/>
  <circle cx="16.76" cy="406.65" r=".71" fill="#77ccf2"/>
  <circle cx="15.63" cy="408.35" r=".71" fill="#77ccf2"/>
  <circle cx="14.49" cy="410.05" r=".71" fill="#77ccf2"/>
  <circle cx="20.73" cy="404.95" r=".71" fill="#fff"/>
  <circle cx="19.6" cy="406.65" r=".71" fill="#fff"/>
  <circle cx="18.46" cy="408.35" r=".71" fill="#fff"/>
  <circle cx="17.33" cy="410.05" r=".71" fill="#fff"/>
  <circle cx="26.96" cy="404.95" r=".71" fill="#fff"/>
  <circle cx="25.83" cy="406.65" r=".71" fill="#fff"/>
  <circle cx="24.7" cy="408.35" r=".71" fill="#fff"/>
  <circle cx="23.56" cy="410.05" r=".71" fill="#fff"/>
  <circle cx="33.2" cy="404.95" r=".71" fill="#fff"/>
  <circle cx="32.07" cy="406.65" r=".71" fill="#fff"/>
  <circle cx="30.93" cy="408.35" r=".71" fill="#fff"/>
  <circle cx="29.8" cy="410.05" r=".71" fill="#fff"/>
  <path fill="none" d="M0 829.67h39.65v31.72H0z"/>
  <circle cx="24.39" cy="839.1" r="8.69" style="isolation:isolate" fill="#efeb60" opacity=".51"/>
  <circle cx="24.39" cy="839.1" r="6.63" fill="#f6b31a" stroke="#feea02" stroke-miterlimit="10"/>
  <g opacity=".3" fill="#231f20">
    <path d="M31.24 842.63a6.4 6.4 0 0 0-11.72 2.13 3.74 3.74 0 0 1 2.87 1.83l-.49.28a3.71 3.71 0 0 0-3.67-1.55 3.69 3.69 0 0 0 1.32 7.14h11.16a4.91 4.91 0 0 0 .54-9.79zM15.74 840a4 4 0 0 0-4-3.32 4.14 4.14 0 0 0-3.25 1.55 3.1 3.1 0 0 1 2.44 1.58l-.52.23c-.59-1.3-2.6-1.33-2.91-1.32a3 3 0 0 0-2 2.8 3.07 3.07 0 0 0 3.14 3h7a2.26 2.26 0 0 0 .06-4.52z"/>
  </g>
  <path d="M30.11 841.5a6.4 6.4 0 0 0-11.72 2.13 3.74 3.74 0 0 1 2.87 1.83l-.49.28a3.71 3.71 0 0 0-3.67-1.59 3.69 3.69 0 0 0 1.32 7.17h11.14a4.91 4.91 0 0 0 .54-9.79zM14.65 838.9a4 4 0 0 0-4-3.32 4.14 4.14 0 0 0-3.25 1.55 3.1 3.1 0 0 1 2.44 1.58l-.52.23c-.67-1.3-2.67-1.32-3-1.32a3 3 0 0 0-2 2.8 3.07 3.07 0 0 0 3.14 3h7.08a2.26 2.26 0 0 0 .06-4.52z" fill="#d8d9d8"/>
  <path fill="none" d="M0 511.91h39.65v31.72H0z"/>
  <circle cx="26.78" cy="521.27" r="8.74" style="isolation:isolate" fill="#efeb60" opacity=".51"/>
  <circle cx="26.78" cy="521.27" r="6.67" fill="#f6b31a" stroke="#feea02" stroke-miterlimit="10"/>
  <g opacity=".3" fill="#231f20">
    <path d="M31.24 525.43a6.4 6.4 0 0 0-11.72 2.13 3.74 3.74 0 0 1 2.87 1.83l-.49.28a3.71 3.71 0 0 0-3.67-1.59 3.69 3.69 0 0 0 1.32 7.14h11.16a4.91 4.91 0 0 0 .54-9.79zM15.74 522.84a4 4 0 0 0-4-3.32 4.14 4.14 0 0 0-3.25 1.55 3.1 3.1 0 0 1 2.44 1.58l-.52.23c-.59-1.3-2.6-1.33-2.91-1.32a3 3 0 0 0-2 2.8 3.07 3.07 0 0 0 3.14 3h7a2.26 2.26 0 0 0 .06-4.52z"/>
  </g>
  <path d="M30.11 524.32a6.4 6.4 0 0 0-11.72 2.13 3.74 3.74 0 0 1 2.87 1.83l-.49.28A3.71 3.71 0 0 0 17.1 527a3.69 3.69 0 0 0 1.32 7.14h11.14a4.91 4.91 0 0 0 .54-9.79zM14.65 521.71a4 4 0 0 0-4-3.32 4.14 4.14 0 0 0-3.25 1.55 3.1 3.1 0 0 1 2.44 1.58l-.52.23c-.59-1.3-2.6-1.33-2.91-1.32a3 3 0 0 0-2 2.8 3.07 3.07 0 0 0 3.14 3h7a2.26 2.26 0 0 0 .06-4.52z" fill="#d8d9d8"/>
  <path d="M21.69 535.47a.43.43 0 0 1 .31.53l-.72 2.34a.43.43 0 0 1-.53.29.43.43 0 0 1-.29-.53l.72-2.34a.43.43 0 0 1 .51-.29zM26.56 535.47a.43.43 0 0 1 .29.53l-.72 2.34a.43.43 0 0 1-.53.29.43.43 0 0 1-.29-.53l.72-2.34a.43.43 0 0 1 .53-.29zM17.11 535.47a.43.43 0 0 1 .29.53l-.72 2.34a.43.43 0 0 1-.53.29.43.43 0 0 1-.29-.53l.72-2.34a.43.43 0 0 1 .53-.29zM31.17 535.47a.43.43 0 0 1 .29.53l-.72 2.34a.43.43 0 0 1-.53.29.43.43 0 0 1-.29-.53l.72-2.34a.43.43 0 0 1 .53-.29z" fill="#77ccf2"/>
  <path d="M24 535.47a.43.43 0 0 1 .29.53l-.72 2.34a.43.43 0 0 1-.53.29.43.43 0 0 1-.29-.53l.72-2.34a.43.43 0 0 1 .53-.29zM28.88 535.47a.43.43 0 0 1 .29.53l-.72 2.34a.43.43 0 0 1-.53.29.43.43 0 0 1-.29-.53l.72-2.34a.43.43 0 0 1 .53-.29zM19.43 535.47a.43.43 0 0 1 .29.53l-.72 2.35a.43.43 0 0 1-.53.29.43.43 0 0 1-.29-.53l.72-2.34a.43.43 0 0 1 .53-.29zM33.5 535.47a.43.43 0 0 1 .29.53l-.72 2.34a.43.43 0 0 1-.53.29.43.43 0 0 1-.29-.53l.72-2.34a.43.43 0 0 1 .53-.29z" fill="#fff"/>
  <circle cx="25.15" cy="614.57" r="8.1" style="isolation:isolate" fill="#efeb60" opacity=".51"/>
  <circle cx="25.15" cy="614.57" r="6.18" fill="#f6b31a" stroke="#feea02" stroke-miterlimit="10"/>
  <circle cx="24.47" cy="741.87" r="8.61" style="isolation:isolate" fill="#efeb60" opacity=".51"/>
  <circle cx="24.47" cy="741.87" r="6.57" fill="#f6b31a" stroke="#feea02" stroke-miterlimit="10"/>
  <g opacity=".3" fill="#231f20">
    <path d="M31.24 617.72a6.4 6.4 0 0 0-11.72 2.13 3.74 3.74 0 0 1 2.87 1.83l-.49.28a3.71 3.71 0 0 0-3.67-1.64 3.69 3.69 0 0 0 1.32 7.14h11.16a4.91 4.91 0 0 0 .54-9.79zM15.74 615.13a4 4 0 0 0-4-3.32 4.14 4.14 0 0 0-3.29 1.51 3.1 3.1 0 0 1 2.44 1.58l-.52.23c-.59-1.3-2.6-1.33-2.91-1.32a3 3 0 0 0-2 2.8 3.07 3.07 0 0 0 3.14 3h7.05a2.26 2.26 0 1 0 .06-4.52z"/>
  </g>
  <path d="M21.67 627a.42.42 0 0 1 .28.52l-.7 2.29a.42.42 0 0 1-.52.28.42.42 0 0 1-.28-.52l.7-2.29a.42.42 0 0 1 .52-.28zM26.36 626.94a.42.42 0 0 1 .28.52l-.7 2.29a.42.42 0 0 1-.52.28.42.42 0 0 1-.28-.52l.7-2.29a.42.42 0 0 1 .52-.28zM17.2 627a.42.42 0 0 1 .28.52l-.7 2.29a.42.42 0 0 1-.52.28.42.42 0 0 1-.28-.52l.7-2.29a.42.42 0 0 1 .52-.28zM30.87 626.94a.42.42 0 0 1 .28.52l-.7 2.29a.42.42 0 0 1-.52.28.42.42 0 0 1-.28-.52l.7-2.29a.42.42 0 0 1 .52-.28z" fill="#77ccf2"/>
  <path d="M23.93 627a.42.42 0 0 1 .28.52l-.7 2.29a.42.42 0 0 1-.51.19.42.42 0 0 1-.28-.52l.7-2.29a.42.42 0 0 1 .51-.19zM28.63 627a.42.42 0 0 1 .28.52l-.7 2.29a.42.42 0 0 1-.52.28.42.42 0 0 1-.28-.52l.7-2.29a.42.42 0 0 1 .52-.28zM19.46 626.94a.42.42 0 0 1 .28.52l-.7 2.29a.42.42 0 0 1-.52.28.42.42 0 0 1-.28-.52l.7-2.29a.42.42 0 0 1 .52-.28z" fill="#fff"/>
  <rect x="31.05" y="628.07" width="3.23" height=".84" rx=".42" ry=".42" transform="rotate(-72.96 32.66 628.49)" fill="#fff"/>
  <path d="M20.53 630.92a.42.42 0 0 1 .28.52l-.7 2.29a.42.42 0 0 1-.52.28.42.42 0 0 1-.28-.52l.7-2.29a.42.42 0 0 1 .52-.28zM25.24 630.92a.42.42 0 0 1 .28.52l-.7 2.29a.42.42 0 0 1-.52.28.42.42 0 0 1-.28-.52l.7-2.29a.42.42 0 0 1 .52-.28zM16 630.91a.42.42 0 0 1 .28.52l-.7 2.29a.42.42 0 0 1-.52.28.42.42 0 0 1-.28-.52l.7-2.29a.42.42 0 0 1 .52-.28zM29.73 630.92a.42.42 0 0 1 .28.52l-.7 2.29a.42.42 0 0 1-.52.28.42.42 0 0 1-.28-.52l.7-2.29a.42.42 0 0 1 .52-.28z" fill="#77ccf2"/>
  <path d="M22.8 630.91a.42.42 0 0 1 .28.52l-.7 2.29a.42.42 0 0 1-.52.28.42.42 0 0 1-.28-.52l.7-2.29a.42.42 0 0 1 .52-.28zM27.5 630.91a.42.42 0 0 1 .28.52l-.7 2.29a.42.42 0 0 1-.52.28.42.42 0 0 1-.28-.52l.7-2.29a.42.42 0 0 1 .52-.28zM18.32 630.91a.42.42 0 0 1 .28.52l-.7 2.29a.42.42 0 0 1-.52.28.42.42 0 0 1-.28-.52l.7-2.29a.42.42 0 0 1 .52-.28zM32 630.91a.42.42 0 0 1 .28.52l-.7 2.29a.42.42 0 0 1-.52.28.42.42 0 0 1-.28-.52l.7-2.29a.42.42 0 0 1 .52-.28z" fill="#fff"/>
  <path d="M30.11 616.59a6.4 6.4 0 0 0-11.72 2.13 3.74 3.74 0 0 1 2.87 1.83l-.49.28a3.71 3.71 0 0 0-3.67-1.59 3.69 3.69 0 0 0 1.32 7.14h11.14a4.91 4.91 0 0 0 .54-9.79zM14.65 614a4 4 0 0 0-4-3.32 4.14 4.14 0 0 0-3.25 1.55 3.1 3.1 0 0 1 2.44 1.58l-.52.23c-.59-1.3-2.6-1.33-2.91-1.32a3 3 0 0 0-2 2.8 3.07 3.07 0 0 0 3.14 3h7a2.26 2.26 0 0 0 .06-4.52z" fill="#d8d9d8"/>
  <path fill="none" d="M0 637.63h39.65v31.72H0zM0 447.55h39.65v31.72H0zM0 479.81h39.65v31.72H0z"/>
  <g opacity=".3" fill="#231f20">
    <path d="M31.24 584.6a6.4 6.4 0 0 0-11.72 2.13 3.74 3.74 0 0 1 2.87 1.83l-.49.28a3.71 3.71 0 0 0-3.67-1.59 3.69 3.69 0 0 0 1.32 7.14h11.16a4.91 4.91 0 0 0 .54-9.79zM15.74 582a4 4 0 0 0-4-3.32 4.14 4.14 0 0 0-3.25 1.55 3.1 3.1 0 0 1 2.44 1.58l-.52.23c-.59-1.3-2.6-1.33-2.91-1.32a3 3 0 0 0-2 2.8 3.07 3.07 0 0 0 3.14 3h7a2.26 2.26 0 0 0 .06-4.52z"/>
  </g>
  <path d="M30.11 583.47a6.4 6.4 0 0 0-11.72 2.13 3.74 3.74 0 0 1 2.87 1.83l-.49.28a3.71 3.71 0 0 0-3.67-1.59 3.69 3.69 0 0 0 1.32 7.14h11.14a4.91 4.91 0 0 0 .54-9.79zM14.65 580.87a4 4 0 0 0-4-3.32 4.14 4.14 0 0 0-3.25 1.55 3.1 3.1 0 0 1 2.44 1.58l-.52.23c-.59-1.3-2.6-1.33-2.91-1.32a3 3 0 0 0-2 2.8 3.07 3.07 0 0 0 3.14 3h7a2.26 2.26 0 0 0 .06-4.52z" fill="#d8d9d8"/>
  <circle cx="26.54" cy="426.27" r="8.74" style="isolation:isolate" fill="#efeb60" opacity=".51"/>
  <circle cx="26.54" cy="426.27" r="6.67" fill="#f6b31a" stroke="#feea02" stroke-miterlimit="10"/>
  <g opacity=".3" fill="#231f20">
    <path d="M31.24 429.4a6.4 6.4 0 0 0-11.72 2.13 3.74 3.74 0 0 1 2.88 1.79l-.49.28a3.71 3.71 0 0 0-3.67-1.6 3.69 3.69 0 0 0 1.32 7.14h11.16a4.91 4.91 0 0 0 .54-9.79zM15.74 426.8a4 4 0 0 0-4-3.32A4.14 4.14 0 0 0 8.49 425a3.1 3.1 0 0 1 2.44 1.58l-.52.23c-.59-1.3-2.6-1.33-2.91-1.32a3 3 0 0 0-2 2.8 3.07 3.07 0 0 0 3.14 3h7a2.26 2.26 0 0 0 .06-4.52z"/>
  </g>
  <path d="M30.11 428.26a6.4 6.4 0 0 0-11.72 2.13 3.74 3.74 0 0 1 2.87 1.83l-.49.28a3.71 3.71 0 0 0-3.67-1.59 3.69 3.69 0 0 0 1.32 7.14h11.14a4.91 4.91 0 0 0 .54-9.79zM14.65 425.67a4 4 0 0 0-4-3.32 4.14 4.14 0 0 0-3.25 1.55 3.1 3.1 0 0 1 2.44 1.58l-.52.23c-.59-1.3-2.6-1.33-2.91-1.32a3 3 0 0 0-2 2.8 3.07 3.07 0 0 0 3.14 3h7a2.26 2.26 0 0 0 .06-4.52z" fill="#d8d9d8"/>
  <path d="M21.11 439.77a.42.42 0 0 1 .28.52l-.7 2.29a.42.42 0 0 1-.52.28.42.42 0 0 1-.28-.52l.7-2.29a.42.42 0 0 1 .52-.28zM25.87 439.77a.42.42 0 0 1 .28.52l-.7 2.29a.42.42 0 0 1-.52.28.42.42 0 0 1-.28-.52l.7-2.29a.42.42 0 0 1 .52-.28zM16.64 439.77a.42.42 0 0 1 .28.52l-.7 2.29a.42.42 0 0 1-.52.28.42.42 0 0 1-.28-.52l.7-2.29a.42.42 0 0 1 .52-.28zM30.37 439.77a.42.42 0 0 1 .28.52l-.7 2.29a.42.42 0 0 1-.52.28.42.42 0 0 1-.28-.52l.7-2.29a.42.42 0 0 1 .52-.28z" fill="#77ccf2"/>
  <path d="M23.38 439.77a.42.42 0 0 1 .28.52l-.7 2.29a.42.42 0 0 1-.52.28.42.42 0 0 1-.28-.52l.7-2.29a.42.42 0 0 1 .52-.28zM28.13 439.76a.42.42 0 0 1 .28.52l-.7 2.29a.42.42 0 0 1-.52.28.42.42 0 0 1-.28-.52l.7-2.29a.42.42 0 0 1 .52-.28zM18.91 439.77a.42.42 0 0 1 .28.52l-.7 2.29a.42.42 0 0 1-.52.28.42.42 0 0 1-.28-.52l.7-2.29a.42.42 0 0 1 .52-.28zM33 440.88l.69-2.29a.42.42 0 0 1 .53-.28.42.42 0 0 1 .28.53l-.69 2.29a.42.42 0 0 1-.53.28.42.42 0 0 1-.28-.53z" fill="#fff"/>
  <path fill="#fff" d="M27.97 442.29h9.35l-4.67-7.88-4.68 7.88"/>
  <path d="M38.35 442.88H26.94l5.7-9.62zM29 441.71h7.3l-3.65-6.15z" fill="#cf2d28"/>
  <path d="M32.72 437.07a4.49 4.49 0 0 0-.46 1.3c0 .41.77.62.77 1.23s-1.44 1.2-1.44 1.2" fill="none" stroke="#231f20" stroke-miterlimit="10"/>
  <path d="M32.8 437.07a2.68 2.68 0 0 0-.33 1c0 .41 1 .39 1.21 1.2.14.6-.51 1.54-.51 1.54" fill="none" stroke="#231f20" stroke-miterlimit="10"/>
  <path fill="none" d="M0 544.11h39.65v31.72H0z"/>
  <circle cx="25.72" cy="554.48" r="9.91" style="isolation:isolate" fill="#43444d" opacity=".25"/>
  <path d="M30.19 555.78a.39.39 0 0 0 .38-.39v-1.31a.39.39 0 1 0-.77 0v1.31a.39.39 0 0 0 .39.39z" fill="#fff"/>
  <path d="M31.23 554.74a.39.39 0 0 0-.39-.38h-1.31a.39.39 0 0 0 0 .77h1.32a.39.39 0 0 0 .38-.39zM17.74 549.32a.39.39 0 0 0 .38-.39v-1.31a.39.39 0 1 0-.77 0v1.31a.39.39 0 0 0 .39.39z" fill="#fff"/>
  <path d="M18.79 548.26a.39.39 0 0 0-.39-.38h-1.31a.39.39 0 1 0-.12.77h1.43a.39.39 0 0 0 .39-.39zM28.65 548.26a.39.39 0 0 0 .38-.39v-1.31a.39.39 0 1 0-.77 0v1.31a.39.39 0 0 0 .39.39z" fill="#fff"/>
  <path d="M29.65 547.22a.39.39 0 0 0-.39-.38H28a.39.39 0 0 0 0 .77h1.31a.39.39 0 0 0 .34-.39z" fill="#fff"/>
  <path d="M25.85 547.46a7.06 7.06 0 0 1 2.46-.13 7.07 7.07 0 0 0 3 12.93 7.08 7.08 0 1 1-5.5-12.8z" style="isolation:isolate" fill="#626472" opacity=".18"/>
  <path d="M23.94 548.1a6.67 6.67 0 0 1 2.33-.12 6.67 6.67 0 0 0 2.87 12.21 6.68 6.68 0 1 1-5.2-12.09z" fill="#fdfce9"/>
  <circle cx="25.26" cy="647.42" r="9.45" style="isolation:isolate" fill="#43444d" opacity=".25"/>
  <path d="M29.52 648.66a.37.37 0 0 0 .37-.37V647a.37.37 0 1 0-.73 0v1.28a.37.37 0 0 0 .36.38z" fill="#fff"/>
  <path d="M30.52 647.67a.37.37 0 0 0-.37-.37h-1.26a.37.37 0 0 0-.12.73h1.38a.37.37 0 0 0 .37-.36zM17.65 642.49a.37.37 0 0 0 .37-.37v-1.25a.37.37 0 1 0-.73 0v1.25a.37.37 0 0 0 .36.37z" fill="#fff"/>
  <path d="M18.65 641.49a.37.37 0 0 0-.37-.37H17a.37.37 0 0 0-.12.73h1.37a.37.37 0 0 0 .4-.34zM28 641.49a.37.37 0 0 0 .37-.37v-1.25a.37.37 0 1 0-.73 0v1.25a.37.37 0 0 0 .36.37z" fill="#fff"/>
  <path d="M29 640.49a.37.37 0 0 0-.37-.37h-1.21a.37.37 0 0 0-.12.73h1.35a.37.37 0 0 0 .39-.35z" fill="#fff"/>
  <path d="M24.84 640.85a6.73 6.73 0 0 1 2.35-.12 6.74 6.74 0 0 0 2.9 12.33 6.75 6.75 0 1 1-5.25-12.2z" style="isolation:isolate" fill="#626472" opacity=".18"/>
  <path d="M23.57 641.32a6.36 6.36 0 0 1 2.22-.12 6.36 6.36 0 0 0 2.74 11.64 6.37 6.37 0 1 1-5-11.53z" fill="#fdfce9"/>
  <circle cx="21.76" cy="775.53" r="9.91" style="isolation:isolate" fill="#43444d" opacity=".25"/>
  <path d="M26.22 776.83a.39.39 0 0 0 .38-.39v-1.31a.39.39 0 1 0-.77 0v1.31a.39.39 0 0 0 .39.39z" fill="#fff"/>
  <path d="M27.27 775.78a.39.39 0 0 0-.39-.38h-1.32a.39.39 0 1 0-.12.77h1.43a.39.39 0 0 0 .4-.38zM13.77 770.32a.39.39 0 0 0 .38-.39v-1.31a.39.39 0 1 0-.77 0v1.31a.39.39 0 0 0 .39.39z" fill="#fff"/>
  <path d="M14.82 769.32a.39.39 0 0 0-.39-.38h-1.31a.39.39 0 1 0-.12.77h1.43a.39.39 0 0 0 .39-.39zM24.65 769.32a.39.39 0 0 0 .38-.39v-1.31a.39.39 0 1 0-.77 0v1.31a.39.39 0 0 0 .39.39z" fill="#fff"/>
  <path d="M25.72 768.26a.39.39 0 0 0-.39-.38H24a.39.39 0 1 0-.12.77h1.43a.39.39 0 0 0 .39-.39z" fill="#fff"/>
  <path d="M21.74 768.83a6.73 6.73 0 0 1 2.35-.12A6.74 6.74 0 0 0 27 781a6.75 6.75 0 1 1-5.25-12.2z" style="isolation:isolate" fill="#626472" opacity=".18"/>
  <path d="M20 769.15a6.67 6.67 0 0 1 2.33-.12 6.67 6.67 0 0 0 2.87 12.21 6.68 6.68 0 1 1-5.2-12.09z" fill="#fdfce9"/>
  <circle cx="23.46" cy="1187.04" r="9.91" style="isolation:isolate" fill="#43444d" opacity=".25"/>
  <path d="M27.92 1188.32a.39.39 0 0 0 .38-.39v-1.31a.39.39 0 1 0-.77 0v1.31a.39.39 0 0 0 .39.39z" fill="#fff"/>
  <path d="M29 1187.32a.39.39 0 0 0-.39-.38h-1.35a.39.39 0 0 0 0 .77h1.31a.39.39 0 0 0 .4-.38zM15.48 1181.86a.39.39 0 0 0 .38-.39v-1.31a.39.39 0 1 0-.77 0v1.31a.39.39 0 0 0 .39.39z" fill="#fff"/>
  <path d="M16.52 1180.82a.39.39 0 0 0-.39-.38h-1.31a.39.39 0 0 0 0 .77h1.31a.39.39 0 0 0 .39-.39zM26.37 1180.82a.39.39 0 0 0 .38-.39v-1.31a.39.39 0 1 0-.77 0v1.31a.39.39 0 0 0 .39.39z" fill="#fff"/>
  <path d="M27.42 1179.77a.39.39 0 0 0-.39-.38h-1.31a.39.39 0 0 0 0 .77H27a.39.39 0 0 0 .39-.39z" fill="#fff"/>
  <path d="M23.65 1180.32a6.73 6.73 0 0 1 2.35-.12 6.74 6.74 0 0 0 2.9 12.33 6.75 6.75 0 1 1-5.25-12.21z" style="isolation:isolate" fill="#626472" opacity=".18"/>
  <path d="M21.65 1180.66a6.67 6.67 0 0 1 2.33-.12 6.67 6.67 0 0 0 2.87 12.21 6.68 6.68 0 1 1-5.2-12.09z" fill="#fdfce9"/>
  <circle cx="24.59" cy="872.45" r="9.91" style="isolation:isolate" fill="#43444d" opacity=".25"/>
  <path d="M29.06 873.75a.39.39 0 0 0 .38-.39V872a.39.39 0 1 0-.77 0v1.27a.39.39 0 0 0 .35.43z" fill="#fff"/>
  <path d="M30.1 872.7a.39.39 0 0 0-.39-.38H28.4a.39.39 0 1 0-.12.77h1.43a.39.39 0 0 0 .39-.39zM16.65 867.27a.39.39 0 0 0 .38-.39v-1.31a.39.39 0 1 0-.77 0v1.31a.39.39 0 0 0 .39.39z" fill="#fff"/>
  <path d="M17.65 866.22a.39.39 0 0 0-.39-.38h-1.31a.39.39 0 0 0 0 .77h1.31a.39.39 0 0 0 .39-.39zM27.51 866.22a.39.39 0 0 0 .38-.39v-1.31a.39.39 0 1 0-.77 0v1.31a.39.39 0 0 0 .39.39z" fill="#fff"/>
  <path d="M28.55 865.18a.39.39 0 0 0-.39-.38h-1.31a.39.39 0 1 0-.12.77h1.43a.39.39 0 0 0 .39-.39z" fill="#fff"/>
  <path d="M24.57 865.88a6.73 6.73 0 0 1 2.35-.12 6.74 6.74 0 0 0 2.9 12.33 6.75 6.75 0 1 1-5.25-12.2z" style="isolation:isolate" fill="#626472" opacity=".18"/>
  <path d="M22.81 866.07a6.67 6.67 0 0 1 2.33-.12A6.67 6.67 0 0 0 28 878.16a6.68 6.68 0 1 1-5.2-12.09z" fill="#fdfce9"/>
  <g opacity=".3" fill="#231f20">
    <path d="M31.24 558.77a6.4 6.4 0 0 0-11.72 2.13 3.74 3.74 0 0 1 2.87 1.83l-.49.28a3.71 3.71 0 0 0-3.67-1.59 3.69 3.69 0 0 0 1.32 7.14h11.16a4.91 4.91 0 0 0 .54-9.79zM15.74 556.18a4 4 0 0 0-4-3.32 4.14 4.14 0 0 0-3.25 1.55 3.1 3.1 0 0 1 2.44 1.59l-.52.23c-.59-1.3-2.6-1.33-2.91-1.32a3 3 0 0 0-2 2.8 3.07 3.07 0 0 0 3.14 3h7a2.26 2.26 0 0 0 .06-4.52z"/>
  </g>
  <path d="M30.11 557.64a6.4 6.4 0 0 0-11.72 2.13 3.74 3.74 0 0 1 2.87 1.83l-.49.28a3.71 3.71 0 0 0-3.67-1.56 3.69 3.69 0 0 0 1.32 7.14h11.14a4.91 4.91 0 0 0 .54-9.79zM14.65 555a4 4 0 0 0-4-3.32 4.14 4.14 0 0 0-3.34 1.59 3.1 3.1 0 0 1 2.44 1.58l-.52.23c-.59-1.3-2.6-1.33-2.91-1.32a3 3 0 0 0-2 2.8 3.07 3.07 0 0 0 3.14 3h7.09a2.26 2.26 0 0 0 .06-4.52z" fill="#d8d9d8"/>
  <path d="M21.62 568.94a.43.43 0 0 1 .29.53l-.72 2.34a.43.43 0 0 1-.53.29.43.43 0 0 1-.29-.53l.72-2.34a.43.43 0 0 1 .53-.29zM26.5 568.94a.43.43 0 0 1 .29.53l-.72 2.34a.43.43 0 0 1-.53.29.43.43 0 0 1-.29-.53l.72-2.34a.43.43 0 0 1 .53-.29zM17 568.93a.43.43 0 0 1 .29.53l-.72 2.34a.43.43 0 0 1-.53.29.43.43 0 0 1-.29-.53l.72-2.34a.43.43 0 0 1 .53-.29zM31.11 568.94a.43.43 0 0 1 .29.53l-.72 2.34a.43.43 0 0 1-.53.29.43.43 0 0 1-.29-.53l.72-2.34a.43.43 0 0 1 .53-.29z" fill="#77ccf2"/>
  <path d="M23.94 568.94a.43.43 0 0 1 .29.53l-.72 2.34a.43.43 0 0 1-.53.29.43.43 0 0 1-.29-.53l.72-2.34a.43.43 0 0 1 .53-.29zM28.82 568.94a.43.43 0 0 1 .29.53l-.72 2.34a.43.43 0 0 1-.53.29.43.43 0 0 1-.29-.53l.72-2.34a.43.43 0 0 1 .53-.29zM19.36 568.93a.43.43 0 0 1 .29.53l-.72 2.34a.43.43 0 0 1-.53.29.43.43 0 0 1-.29-.53l.72-2.34a.43.43 0 0 1 .53-.29zM33.43 568.94a.43.43 0 0 1 .29.53l-.72 2.35a.43.43 0 0 1-.53.29.43.43 0 0 1-.29-.53l.72-2.34a.43.43 0 0 1 .53-.29z" fill="#fff"/>
  <path d="M21.62 595a.43.43 0 0 1 .29.53l-.72 2.34a.43.43 0 0 1-.53.29.43.43 0 0 1-.29-.53l.72-2.34a.43.43 0 0 1 .53-.29zM26.5 595a.43.43 0 0 1 .29.53l-.72 2.34a.43.43 0 0 1-.53.29.43.43 0 0 1-.29-.53l.72-2.34a.43.43 0 0 1 .53-.29zM17 594.95a.43.43 0 0 1 .29.53l-.72 2.34a.43.43 0 0 1-.53.29.43.43 0 0 1-.29-.53l.72-2.34a.43.43 0 0 1 .53-.29zM31.11 595a.43.43 0 0 1 .29.53l-.72 2.34a.43.43 0 0 1-.53.29.43.43 0 0 1-.29-.53l.72-2.34a.43.43 0 0 1 .53-.29z" fill="#77ccf2"/>
  <path d="M23.94 595a.43.43 0 0 1 .29.53l-.72 2.34a.43.43 0 0 1-.53.29.43.43 0 0 1-.29-.53l.72-2.34a.43.43 0 0 1 .53-.29zM28.82 595a.43.43 0 0 1 .29.53l-.72 2.34a.43.43 0 0 1-.53.29.43.43 0 0 1-.29-.53l.72-2.34a.43.43 0 0 1 .53-.29zM19.36 594.95a.43.43 0 0 1 .29.53l-.72 2.34a.43.43 0 0 1-.53.29.43.43 0 0 1-.29-.53l.72-2.34a.43.43 0 0 1 .53-.29zM33.43 595a.43.43 0 0 1 .29.53l-.72 2.31a.43.43 0 0 1-.53.29.43.43 0 0 1-.29-.53l.72-2.34a.43.43 0 0 1 .53-.29z" fill="#fff"/>
  <circle cx="23.46" cy="458.34" r="9.91" style="isolation:isolate" fill="#43444d" opacity=".25"/>
  <path d="M27.92 459.63a.39.39 0 0 0 .38-.39v-1.31a.39.39 0 1 0-.77 0v1.31a.39.39 0 0 0 .39.39z" fill="#fff"/>
  <path d="M29 458.59a.39.39 0 0 0-.39-.38h-1.35a.38.38 0 1 0 0 .77h1.31a.39.39 0 0 0 .4-.38zM15.48 453.16a.39.39 0 0 0 .38-.39v-1.31a.39.39 0 1 0-.77 0v1.31a.39.39 0 0 0 .39.39z" fill="#fff"/>
  <path d="M16.52 452.11a.39.39 0 0 0-.39-.38h-1.31a.38.38 0 1 0 0 .77h1.31a.39.39 0 0 0 .39-.39zM26.37 452.11a.39.39 0 0 0 .38-.39v-1.31a.39.39 0 1 0-.77 0v1.31a.39.39 0 0 0 .39.39z" fill="#fff"/>
  <path d="M27.42 451.07a.39.39 0 0 0-.39-.38h-1.31a.38.38 0 0 0 0 .77H27a.39.39 0 0 0 .42-.36v-.03z" fill="#fff"/>
  <path d="M23 451.32a7.06 7.06 0 0 1 2.46-.13 7.07 7.07 0 0 0 3 12.93 7.08 7.08 0 1 1-5.5-12.8z" style="isolation:isolate" fill="#626472" opacity=".18"/>
  <path d="M21.65 452a6.67 6.67 0 0 1 2.33-.12 6.67 6.67 0 0 0 2.87 12.21 6.68 6.68 0 1 1-5.2-12.09z" fill="#fdfce9"/>
  <g opacity=".3" fill="#231f20">
    <path d="M31.24 462.06a6.4 6.4 0 0 0-11.72 2.13 3.74 3.74 0 0 1 2.87 1.81l-.49.28a3.71 3.71 0 0 0-3.67-1.59 3.69 3.69 0 0 0 1.32 7.14h11.16a4.91 4.91 0 0 0 .54-9.79zM15.74 459.47a4 4 0 0 0-4-3.32 4.14 4.14 0 0 0-3.25 1.55 3.1 3.1 0 0 1 2.4 1.62l-.52.23c-.59-1.3-2.6-1.33-2.91-1.32a3 3 0 0 0-2 2.8 3.07 3.07 0 0 0 3.14 3h7.05a2.26 2.26 0 1 0 .06-4.52z"/>
  </g>
  <path d="M30.11 460.93a6.4 6.4 0 0 0-11.72 2.13 3.74 3.74 0 0 1 2.87 1.83l-.49.28a3.71 3.71 0 0 0-3.67-1.59 3.69 3.69 0 0 0 1.32 7.14h11.14a4.91 4.91 0 0 0 .54-9.79zM14.65 458.32a4 4 0 0 0-4-3.32 4.14 4.14 0 0 0-3.25 1.55 3.1 3.1 0 0 1 2.44 1.58l-.52.23c-.59-1.3-2.6-1.33-2.91-1.32a3 3 0 0 0-2 2.8 3.07 3.07 0 0 0 3.14 3h7a2.26 2.26 0 1 0 .1-4.52z" fill="#d8d9d8"/>
  <path d="M21.18 472.35a.42.42 0 0 1 .28.52l-.7 2.29a.42.42 0 0 1-.52.28.42.42 0 0 1-.28-.52l.7-2.29a.42.42 0 0 1 .52-.28zM26 472.34a.42.42 0 0 1 .28.52l-.7 2.29a.42.42 0 0 1-.52.28.42.42 0 0 1-.28-.52l.7-2.29a.42.42 0 0 1 .52-.28zM16.72 472.35a.42.42 0 0 1 .28.52l-.7 2.29a.42.42 0 0 1-.52.28.42.42 0 0 1-.28-.52l.7-2.29a.42.42 0 0 1 .52-.28zM30.45 472.35a.42.42 0 0 1 .28.52l-.7 2.29a.42.42 0 0 1-.52.28.42.42 0 0 1-.28-.52l.7-2.29a.42.42 0 0 1 .52-.28z" fill="#77ccf2"/>
  <path d="M23.46 472.35a.42.42 0 0 1 .28.52l-.7 2.29a.42.42 0 0 1-.52.28.42.42 0 0 1-.28-.52l.7-2.29a.42.42 0 0 1 .52-.28zM28.21 472.35a.42.42 0 0 1 .28.52l-.7 2.29a.42.42 0 0 1-.52.28.42.42 0 0 1-.28-.52l.7-2.29a.42.42 0 0 1 .52-.28zM19 472.35a.42.42 0 0 1 .28.52l-.7 2.29a.42.42 0 0 1-.52.28.42.42 0 0 1-.28-.52l.7-2.29a.42.42 0 0 1 .52-.28zM31.49 474.91l.7-2.29a.42.42 0 0 1 .52-.28.42.42 0 0 1 .28.52l-.7 2.29a.42.42 0 0 1-.52.28.42.42 0 0 1-.28-.52z" fill="#fff"/>
  <path fill="#fff" d="M28.27 475.55h9.35l-4.67-7.89-4.68 7.89"/>
  <path d="M38.65 476.13h-11.4l5.7-9.62zM29.3 475h7.3l-3.65-6.16z" fill="#cf2d28"/>
  <path d="M33 470.32a4.49 4.49 0 0 0-.46 1.3c0 .41.77.62.77 1.23s-1.44 1.2-1.44 1.2" fill="none" stroke="#231f20" stroke-miterlimit="10"/>
  <path d="M33.1 470.32a2.68 2.68 0 0 0-.33 1c0 .41 1 .39 1.21 1.2.14.6-.51 1.54-.51 1.54" fill="none" stroke="#231f20" stroke-miterlimit="10"/>
  <g opacity=".3" fill="#231f20">
    <path d="M30.27 487.62a6.4 6.4 0 0 0-11.72 2.13 3.74 3.74 0 0 1 2.87 1.83l-.49.28a3.71 3.71 0 0 0-3.67-1.59 3.69 3.69 0 0 0 1.32 7.14h11.16a4.91 4.91 0 0 0 .54-9.79zM14.77 485a4 4 0 0 0-4-3.32 4.14 4.14 0 0 0-3.25 1.55 3.1 3.1 0 0 1 2.48 1.61l-.52.23c-.59-1.3-2.6-1.33-2.91-1.32a3 3 0 0 0-2 2.8 3.07 3.07 0 0 0 3.14 3h7.12a2.26 2.26 0 1 0 .06-4.52h-.08z"/>
  </g>
  <path d="M29.13 486.48a6.4 6.4 0 0 0-11.72 2.13 3.74 3.74 0 0 1 2.87 1.83l-.49.28a3.71 3.71 0 0 0-3.67-1.59 3.69 3.69 0 0 0 1.32 7.19h11.12a4.91 4.91 0 0 0 .54-9.79zM13.65 483.89a4 4 0 0 0-4-3.32 4.14 4.14 0 0 0-3.25 1.55 3.1 3.1 0 0 1 2.44 1.58l-.52.23c-.59-1.3-2.6-1.33-2.91-1.32a3 3 0 0 0-2 2.8 3.07 3.07 0 0 0 3.14 3h7.12a2.26 2.26 0 0 0 .06-4.52z" fill="#d8d9d8"/>
  <path d="M20.54 498.3a.42.42 0 0 1 .28.52l-.7 2.29a.42.42 0 0 1-.52.28.42.42 0 0 1-.28-.52l.7-2.29a.42.42 0 0 1 .52-.28zM25.3 498.3a.42.42 0 0 1 .28.52l-.7 2.29a.42.42 0 0 1-.52.28.42.42 0 0 1-.28-.52l.7-2.29a.42.42 0 0 1 .52-.28zM16.07 498.3a.42.42 0 0 1 .28.52l-.7 2.29a.42.42 0 0 1-.52.28.42.42 0 0 1-.28-.52l.7-2.29a.42.42 0 0 1 .52-.28zM29.79 498.3a.42.42 0 0 1 .28.52l-.7 2.29a.42.42 0 0 1-.52.28.42.42 0 0 1-.28-.52l.7-2.29a.42.42 0 0 1 .52-.28z" fill="#77ccf2"/>
  <path d="M22.81 498.3a.42.42 0 0 1 .28.52l-.7 2.29a.42.42 0 0 1-.52.28.42.42 0 0 1-.28-.52l.7-2.29a.42.42 0 0 1 .52-.28zM27.55 498.3a.42.42 0 0 1 .28.52l-.7 2.29a.42.42 0 0 1-.52.28.42.42 0 0 1-.28-.52l.7-2.29a.42.42 0 0 1 .52-.28zM18.34 498.3a.42.42 0 0 1 .28.52l-.7 2.29a.42.42 0 0 1-.52.28.42.42 0 0 1-.28-.52l.7-2.29a.42.42 0 0 1 .52-.28zM32.06 498.3a.42.42 0 0 1 .28.52l-.7 2.29a.42.42 0 0 1-.52.28.42.42 0 0 1-.28-.52l.7-2.29a.42.42 0 0 1 .52-.28z" fill="#fff"/>
  <path fill="#fff" d="M27.86 502.24h9.35l-4.67-7.89-4.68 7.89"/>
  <path d="M38.24 502.83h-11.4l5.7-9.62zm-9.35-1.17h7.3l-3.65-6.16z" fill="#cf2d28"/>
  <path d="M32.65 497a4.49 4.49 0 0 0-.46 1.3c0 .41.77.62.77 1.23s-1.44 1.2-1.44 1.2" fill="none" stroke="#231f20" stroke-miterlimit="10"/>
  <path d="M32.65 497a2.68 2.68 0 0 0-.33 1c0 .41 1 .39 1.21 1.2.14.6-.51 1.54-.51 1.54" fill="none" stroke="#231f20" stroke-miterlimit="10"/>
  <g opacity=".3" fill="#231f20">
    <path d="M31.24 651.16a6.4 6.4 0 0 0-11.72 2.16 3.74 3.74 0 0 1 2.87 1.83l-.49.28a3.71 3.71 0 0 0-3.67-1.59 3.69 3.69 0 0 0 1.32 7.16h11.16a4.91 4.91 0 0 0 .54-9.79zM15.74 648.57a4 4 0 0 0-4-3.32 4.14 4.14 0 0 0-3.25 1.55 3.1 3.1 0 0 1 2.44 1.58l-.52.23c-.63-1.29-2.64-1.29-3-1.29a3 3 0 0 0-2 2.8 3.07 3.07 0 0 0 3.14 3h7.05a2.26 2.26 0 1 0 .06-4.52z"/>
  </g>
  <path d="M30.11 650a6.4 6.4 0 0 0-11.72 2.13 3.74 3.74 0 0 1 2.87 1.87l-.49.28a3.71 3.71 0 0 0-3.67-1.59 3.69 3.69 0 0 0 1.32 7.14h11.14a4.92 4.92 0 1 0 .54-9.83zM14.65 647.43a4 4 0 0 0-4-3.32 4.14 4.14 0 0 0-3.25 1.55 3.1 3.1 0 0 1 2.44 1.58l-.52.23c-.59-1.3-2.6-1.33-2.91-1.32a3 3 0 0 0-2 2.8 3.07 3.07 0 0 0 3.14 3h7a2.26 2.26 0 0 0 .06-4.52z" fill="#d8d9d8"/>
  <path d="M22.09 661.58a.42.42 0 0 1 .28.52l-.7 2.29a.42.42 0 0 1-.52.28.42.42 0 0 1-.28-.52l.7-2.29a.42.42 0 0 1 .52-.28zM26.79 661.58a.42.42 0 0 1 .28.52l-.7 2.29a.42.42 0 0 1-.52.28.42.42 0 0 1-.28-.52l.7-2.29a.42.42 0 0 1 .52-.28zM17.63 661.58a.42.42 0 0 1 .28.52l-.7 2.29a.42.42 0 0 1-.52.28.42.42 0 0 1-.28-.52l.7-2.29a.42.42 0 0 1 .52-.28zM31 661.71a.42.42 0 0 1 .28.52l-.69 2.29a.42.42 0 0 1-.52.28.42.42 0 0 1-.28-.52l.69-2.29a.42.42 0 0 1 .52-.28z" fill="#77ccf2"/>
  <path d="M24.36 661.59a.42.42 0 0 1 .28.52l-.7 2.29a.42.42 0 0 1-.52.28.42.42 0 0 1-.28-.52l.7-2.29a.42.42 0 0 1 .52-.28zM29.06 661.58a.42.42 0 0 1 .28.52l-.7 2.29a.42.42 0 0 1-.52.28.42.42 0 0 1-.28-.52l.7-2.29a.42.42 0 0 1 .52-.28zM19.9 661.59a.42.42 0 0 1 .28.52l-.7 2.29a.42.42 0 0 1-.52.28.42.42 0 0 1-.28-.52l.7-2.29a.42.42 0 0 1 .52-.28z" fill="#fff"/>
  <rect x="31.03" y="662.94" width="3.23" height=".84" rx=".42" ry=".42" transform="rotate(-72.96 32.64 663.36)" fill="#fff"/>
  <path d="M21 665.56a.42.42 0 0 1 .28.52l-.7 2.29a.42.42 0 0 1-.52.28.42.42 0 0 1-.28-.52l.7-2.29a.42.42 0 0 1 .52-.28zM25.66 665.55a.42.42 0 0 1 .28.52l-.7 2.29a.42.42 0 0 1-.52.28.42.42 0 0 1-.28-.52l.7-2.29a.42.42 0 0 1 .52-.28zM16.49 665.56a.42.42 0 0 1 .28.52l-.7 2.29a.42.42 0 0 1-.52.28.42.42 0 0 1-.28-.52l.7-2.29a.42.42 0 0 1 .52-.28zM30 665.56a.42.42 0 0 1 .28.52l-.7 2.29a.42.42 0 0 1-.52.28.42.42 0 0 1-.28-.52l.7-2.29a.42.42 0 0 1 .52-.28z" fill="#77ccf2"/>
  <path d="M23.22 665.55a.42.42 0 0 1 .28.52l-.7 2.29a.42.42 0 0 1-.52.28.42.42 0 0 1-.28-.52l.7-2.29a.42.42 0 0 1 .52-.28zM27.93 665.56a.42.42 0 0 1 .28.52l-.7 2.29a.42.42 0 0 1-.52.28.42.42 0 0 1-.28-.52l.7-2.29a.42.42 0 0 1 .52-.28zM18.75 665.55a.42.42 0 0 1 .28.52l-.7 2.29a.42.42 0 0 1-.52.28.42.42 0 0 1-.28-.52l.7-2.29a.42.42 0 0 1 .52-.28zM32 665.65a.42.42 0 0 1 .28.52l-.7 2.29a.42.42 0 0 1-.52.28.42.42 0 0 1-.28-.52l.7-2.29a.42.42 0 0 1 .52-.28z" fill="#fff"/>
  <path d="M22.09 690.6a.42.42 0 0 1 .28.52l-.7 2.29a.42.42 0 0 1-.52.28.42.42 0 0 1-.28-.52l.7-2.29a.42.42 0 0 1 .52-.28zM26.79 690.6a.42.42 0 0 1 .28.52l-.7 2.29a.42.42 0 0 1-.52.28.42.42 0 0 1-.28-.52l.7-2.29a.42.42 0 0 1 .52-.28zM17.63 690.6a.42.42 0 0 1 .28.52l-.7 2.29a.42.42 0 0 1-.52.28.42.42 0 0 1-.28-.52l.7-2.29a.42.42 0 0 1 .52-.28zM31 690.72a.42.42 0 0 1 .28.52l-.69 2.29a.42.42 0 0 1-.52.28.42.42 0 0 1-.28-.52l.69-2.29a.42.42 0 0 1 .52-.28z" fill="#77ccf2"/>
  <path d="M24.36 690.61a.42.42 0 0 1 .28.52l-.7 2.29a.42.42 0 0 1-.52.28.42.42 0 0 1-.28-.52l.7-2.29a.42.42 0 0 1 .52-.28zM29.06 690.6a.42.42 0 0 1 .28.52l-.7 2.29a.42.42 0 0 1-.52.28.42.42 0 0 1-.28-.52l.7-2.29a.42.42 0 0 1 .52-.28zM19.9 690.61a.42.42 0 0 1 .28.52l-.7 2.29a.42.42 0 0 1-.52.28.42.42 0 0 1-.28-.52l.7-2.29a.42.42 0 0 1 .52-.28z" fill="#fff"/>
  <rect x="31.04" y="691.95" width="3.23" height=".84" rx=".42" ry=".42" transform="rotate(-72.96 32.66 692.37)" fill="#fff"/>
  <path d="M21 694.57a.42.42 0 0 1 .28.52l-.7 2.29a.42.42 0 0 1-.52.28.42.42 0 0 1-.28-.52l.7-2.29a.42.42 0 0 1 .52-.28zM25.66 694.57a.42.42 0 0 1 .28.52l-.7 2.29a.42.42 0 0 1-.52.28.42.42 0 0 1-.28-.52l.7-2.29a.42.42 0 0 1 .52-.28zM16.49 694.57a.42.42 0 0 1 .28.52l-.7 2.29a.42.42 0 0 1-.52.28.42.42 0 0 1-.28-.52l.7-2.29a.42.42 0 0 1 .52-.28zM30 694.58a.42.42 0 0 1 .28.52l-.7 2.29a.42.42 0 0 1-.52.28.42.42 0 0 1-.28-.52l.7-2.29a.42.42 0 0 1 .52-.28z" fill="#77ccf2"/>
  <path d="M23.22 694.57a.42.42 0 0 1 .28.52l-.7 2.29a.42.42 0 0 1-.52.28.42.42 0 0 1-.28-.52l.7-2.29a.42.42 0 0 1 .52-.28zM27.93 694.58a.42.42 0 0 1 .28.52l-.7 2.29a.42.42 0 0 1-.52.28.42.42 0 0 1-.28-.52l.7-2.29a.42.42 0 0 1 .52-.28zM18.75 694.57a.42.42 0 0 1 .28.52l-.7 2.29a.42.42 0 0 1-.52.28.42.42 0 0 1-.28-.52l.7-2.29a.42.42 0 0 1 .52-.28zM32 694.67a.42.42 0 0 1 .28.52l-.7 2.29a.42.42 0 0 1-.52.28.42.42 0 0 1-.28-.52l.7-2.29a.42.42 0 0 1 .52-.28z" fill="#fff"/>
  <g opacity=".3" fill="#231f20">
    <path d="M31.24 680.32a6.4 6.4 0 0 0-11.72 2.13 3.74 3.74 0 0 1 2.87 1.83l-.49.28a3.71 3.71 0 0 0-3.67-1.56 3.69 3.69 0 0 0 1.32 7.14h11.16a4.91 4.91 0 0 0 .54-9.79zM15.74 677.68a4 4 0 0 0-4.09-3.36 4.14 4.14 0 0 0-3.25 1.55 3.1 3.1 0 0 1 2.44 1.58l-.52.23c-.59-1.3-2.6-1.33-2.91-1.32a3 3 0 0 0-2 2.8 3.07 3.07 0 0 0 3.14 3h7.1a2.26 2.26 0 1 0 .06-4.52z"/>
  </g>
  <path d="M30.11 679.14a6.4 6.4 0 0 0-11.72 2.13 3.74 3.74 0 0 1 2.87 1.83l-.49.28a3.71 3.71 0 0 0-3.67-1.59 3.69 3.69 0 0 0 1.32 7.14h11.14a4.91 4.91 0 0 0 .54-9.79zM14.65 676.54a4 4 0 0 0-4-3.32 4.14 4.14 0 0 0-3.25 1.55 3.1 3.1 0 0 1 2.35 1.55l-.52.23c-.58-1.23-2.58-1.29-2.9-1.29a3 3 0 0 0-2 2.8 3.07 3.07 0 0 0 3.14 3h7.08a2.26 2.26 0 1 0 .06-4.52z" fill="#d8d9d8"/>
  <g opacity=".3" fill="#231f20">
    <path d="M31.24 743.86A6.4 6.4 0 0 0 19.52 746a3.74 3.74 0 0 1 2.87 1.83l-.49.28a3.71 3.71 0 0 0-3.67-1.59 3.69 3.69 0 0 0 1.32 7.14h11.16a4.91 4.91 0 0 0 .54-9.79zM15.74 741.32a4 4 0 0 0-4-3.32 4.14 4.14 0 0 0-3.25 1.55 3.1 3.1 0 0 1 2.44 1.58l-.52.23c-.59-1.3-2.6-1.33-2.91-1.32a3 3 0 0 0-2 2.8 3.07 3.07 0 0 0 3.14 3h7a2.26 2.26 0 0 0 .06-4.52z"/>
  </g>
  <path d="M30.11 742.73a6.4 6.4 0 0 0-11.72 2.13 3.74 3.74 0 0 1 2.87 1.83l-.49.28a3.71 3.71 0 0 0-3.67-1.59 3.69 3.69 0 0 0 1.32 7.14h11.14a4.91 4.91 0 0 0 .54-9.79zM14.65 740.14a4 4 0 0 0-4-3.32 4.14 4.14 0 0 0-3.34 1.5 3.1 3.1 0 0 1 2.44 1.58l-.52.23c-.59-1.3-2.6-1.33-2.91-1.32a3 3 0 0 0-2 2.8 3.07 3.07 0 0 0 3.14 3h7.09a2.26 2.26 0 0 0 .06-4.52z" fill="#d8d9d8"/>
  <path d="M21.67 753.59a.42.42 0 0 1 .28.52l-2 6.63a.42.42 0 0 1-.52.28.42.42 0 0 1-.28-.52l2-6.63a.42.42 0 0 1 .52-.28zM27 753.58a.42.42 0 0 1 .28.52l-2 6.63a.42.42 0 0 1-.52.28.42.42 0 0 1-.28-.52l2-6.63a.42.42 0 0 1 .52-.28zM16.66 753.58a.42.42 0 0 1 .28.52l-2 6.63a.42.42 0 0 1-.52.28.42.42 0 0 1-.28-.52l2-6.63a.42.42 0 0 1 .52-.28zM32 753.58a.42.42 0 0 1 .28.52l-2 6.63a.42.42 0 0 1-.52.28.42.42 0 0 1-.28-.52l2-6.63a.42.42 0 0 1 .52-.28z" fill="#77ccf2"/>
  <path d="M24.25 753.56a.42.42 0 0 1 .34.49v.06l-2 6.65a.42.42 0 0 1-.59.24.42.42 0 0 1-.28-.52l2-6.65a.42.42 0 0 1 .53-.27zM29.56 753.58a.42.42 0 0 1 .28.52l-2 6.63a.42.42 0 0 1-.52.28.42.42 0 0 1-.28-.52l2-6.63a.42.42 0 0 1 .52-.28zM19.28 753.58a.42.42 0 0 1 .28.52l-2 6.63a.42.42 0 0 1-.56.27.42.42 0 0 1-.28-.52l2-6.63a.42.42 0 0 1 .52-.28z" fill="#fff"/>
  <rect x="29.57" y="756.87" width="7.79" height=".84" rx=".42" ry=".42" transform="rotate(-73.19 33.47 757.29)" fill="#fff"/>
  <path d="M31.24 710.46a6.4 6.4 0 0 0-11.72 2.13 3.74 3.74 0 0 1 2.87 1.83l-.49.28a3.71 3.71 0 0 0-3.67-1.59 3.69 3.69 0 0 0 1.32 7.14h11.16a4.91 4.91 0 0 0 .54-9.79zM15.74 707.87a4 4 0 0 0-4-3.32 4.14 4.14 0 0 0-3.25 1.55 3.1 3.1 0 0 1 2.44 1.58l-.52.23c-.59-1.3-2.6-1.33-2.91-1.32a3 3 0 0 0-2 2.8 3.07 3.07 0 0 0 3.14 3h7a2.26 2.26 0 0 0 .06-4.52z" fill="#919191"/>
  <path d="M21.68 721a.42.42 0 0 1 .28.52l-2 6.63a.42.42 0 0 1-.52.28.42.42 0 0 1-.28-.52l2-6.63a.42.42 0 0 1 .52-.28zM27 721a.42.42 0 0 1 .28.52l-2 6.63a.42.42 0 0 1-.52.28.42.42 0 0 1-.28-.52l2-6.63A.42.42 0 0 1 27 721zM16.67 721a.42.42 0 0 1 .28.52l-2 6.63a.42.42 0 0 1-.52.28.42.42 0 0 1-.28-.52l2-6.63a.42.42 0 0 1 .52-.28zM32 721a.42.42 0 0 1 .28.52l-2 6.63a.42.42 0 0 1-.52.28.42.42 0 0 1-.28-.52l2-6.63A.42.42 0 0 1 32 721z" fill="#77ccf2"/>
  <path d="M24.29 721a.42.42 0 0 1 .28.52l-2 6.63a.42.42 0 0 1-.52.28.42.42 0 0 1-.28-.52l2-6.63a.42.42 0 0 1 .52-.28zM29.56 721a.42.42 0 0 1 .28.52l-2 6.63a.42.42 0 0 1-.52.28.42.42 0 0 1-.28-.52l2-6.63a.42.42 0 0 1 .52-.28zM19.28 721a.42.42 0 0 1 .28.52l-2 6.63a.42.42 0 0 1-.52.28.42.42 0 0 1-.28-.52l2-6.63a.42.42 0 0 1 .52-.28z" fill="#fff"/>
  <rect x="29.59" y="724.25" width="7.77" height=".84" rx=".42" ry=".42" transform="matrix(.3 -.96 .96 .3 -669.19 544.32)" fill="#fff"/>
  <path fill="none" d="M0 1143.2h39.65v31.72H0zM0 1110.86h39.65v31.72H0z"/>
  <path d="M31.24 1122.69a6.4 6.4 0 0 0-11.72 2.13 3.74 3.74 0 0 1 2.87 1.83l-.49.28a3.71 3.71 0 0 0-3.67-1.59 3.69 3.69 0 0 0 1.32 7.14h11.16a4.91 4.91 0 0 0 .54-9.79zM15.74 1120.1a4 4 0 0 0-4-3.32 4.14 4.14 0 0 0-3.29 1.54 3.1 3.1 0 0 1 2.44 1.58l-.52.23c-.59-1.3-2.6-1.33-2.91-1.32a3 3 0 0 0-2 2.8 3.07 3.07 0 0 0 3.14 3h7.05a2.26 2.26 0 1 0 .06-4.52z" fill="#919191"/>
  <path fill="#feda00" d="M24.25 748.65h2.82l-.84 2.34h1.45l-3.91 7.48.9-5.49h-1.25l.83-4.33"/>
  <path fill="#f47920" d="M23.68 748.09h2.83l-.84 2.33h1.44l-3.91 7.48.9-5.49h-1.25l.83-4.32"/>
  <g opacity=".3" fill="#231f20">
    <path d="M31.24 778.12a6.4 6.4 0 0 0-11.72 2.13 3.74 3.74 0 0 1 2.87 1.83l-.49.28a3.71 3.71 0 0 0-3.67-1.59 3.69 3.69 0 0 0 1.32 7.14h11.16a4.91 4.91 0 0 0 .54-9.79zM15.74 775.53a4 4 0 0 0-4-3.32 4.14 4.14 0 0 0-3.25 1.55 3.1 3.1 0 0 1 2.4 1.56l-.52.23c-.59-1.3-2.6-1.33-2.91-1.32a3 3 0 0 0-2 2.8 3.07 3.07 0 0 0 3.14 3h7.05a2.26 2.26 0 1 0 .06-4.52z"/>
  </g>
  <path d="M30.11 777a6.4 6.4 0 0 0-11.72 2.13 3.74 3.74 0 0 1 2.87 1.87l-.49.28a3.71 3.71 0 0 0-3.67-1.59 3.69 3.69 0 0 0 1.32 7.14h11.14a4.92 4.92 0 1 0 .54-9.83zM14.65 774.39a4 4 0 0 0-4-3.32 4.14 4.14 0 0 0-3.25 1.55 3.1 3.1 0 0 1 2.44 1.58l-.52.23c-.59-1.3-2.6-1.33-2.91-1.32a3 3 0 0 0-2 2.8 3.07 3.07 0 0 0 3.14 3h7a2.26 2.26 0 0 0 .06-4.52z" fill="#d8d9d8"/>
  <path d="M21.67 787.41a.42.42 0 0 1 .28.52l-2 6.63a.42.42 0 0 1-.52.28.42.42 0 0 1-.28-.52l2-6.63a.42.42 0 0 1 .52-.28zM26.94 787.41a.42.42 0 0 1 .28.52l-2 6.63a.42.42 0 0 1-.52.28.42.42 0 0 1-.28-.52l2-6.63a.42.42 0 0 1 .52-.28zM16.66 787.41a.42.42 0 0 1 .28.52l-2 6.63a.42.42 0 0 1-.52.28.42.42 0 0 1-.28-.52l2-6.63a.42.42 0 0 1 .52-.28zM32 787.41a.42.42 0 0 1 .28.52l-2 6.63a.42.42 0 0 1-.52.28.42.42 0 0 1-.28-.52l2-6.63a.42.42 0 0 1 .52-.28z" fill="#77ccf2"/>
  <path d="M24.29 787.41a.42.42 0 0 1 .28.52l-2 6.63a.42.42 0 0 1-.52.28.42.42 0 0 1-.28-.52l2-6.63a.42.42 0 0 1 .52-.28zM29.56 787.41a.42.42 0 0 1 .28.52l-2 6.63a.42.42 0 0 1-.52.28.42.42 0 0 1-.28-.52l2-6.63a.42.42 0 0 1 .52-.28zM19.28 787.41a.42.42 0 0 1 .28.52l-2 6.63a.42.42 0 0 1-.52.28.42.42 0 0 1-.28-.52l2-6.63a.42.42 0 0 1 .52-.28z" fill="#fff"/>
  <rect x="29.58" y="790.7" width="7.77" height=".84" rx=".42" ry=".42" transform="rotate(-72.96 33.47 791.12)" fill="#fff"/>
  <path fill="#feda00" d="M24.25 783.48h2.82l-.84 2.33h1.45l-3.91 7.48.9-5.49h-1.25l.83-4.32"/>
  <path fill="#f47920" d="M23.68 782.91h2.83l-.84 2.34h1.44l-3.91 7.47.9-5.49h-1.25l.83-4.32"/>
  <path fill="none" d="M0 796.7h39.65v31.72H0z"/>
  <g opacity=".3" fill="#231f20">
    <path d="M31.24 805.12a6.4 6.4 0 0 0-11.72 2.13 3.74 3.74 0 0 1 2.87 1.83l-.49.28a3.71 3.71 0 0 0-3.67-1.59 3.69 3.69 0 0 0 1.32 7.14h11.16a4.91 4.91 0 0 0 .54-9.79zM15.74 802.53a4 4 0 0 0-4-3.32 4.14 4.14 0 0 0-3.25 1.55 3.1 3.1 0 0 1 2.4 1.56l-.52.23c-.59-1.3-2.6-1.33-2.91-1.32a3 3 0 0 0-2 2.8 3.07 3.07 0 0 0 3.14 3h7.05a2.26 2.26 0 1 0 .06-4.52z"/>
  </g>
  <path d="M30.11 804a6.4 6.4 0 0 0-11.72 2.13 3.74 3.74 0 0 1 2.87 1.87l-.49.28a3.71 3.71 0 0 0-3.67-1.59 3.69 3.69 0 0 0 1.32 7.14h11.14a4.92 4.92 0 1 0 .54-9.83zM14.65 801.39a4 4 0 0 0-4-3.32 4.14 4.14 0 0 0-3.25 1.55 3.1 3.1 0 0 1 2.44 1.58l-.52.23c-.59-1.3-2.6-1.33-2.91-1.32a3 3 0 0 0-2 2.8 3.07 3.07 0 0 0 3.14 3h7a2.26 2.26 0 0 0 .06-4.52z" fill="#d8d9d8"/>
  <path d="M21.67 816.11a.42.42 0 0 1 .28.52l-2 6.63a.42.42 0 0 1-.52.28.42.42 0 0 1-.28-.52l2-6.63a.42.42 0 0 1 .52-.28zM26.94 816.11a.42.42 0 0 1 .28.52l-2 6.63a.42.42 0 0 1-.52.28.42.42 0 0 1-.28-.52l2-6.63a.42.42 0 0 1 .52-.28zM16.65 816.11a.42.42 0 0 1 .28.52l-2 6.63a.42.42 0 0 1-.52.28.42.42 0 0 1-.28-.52l2-6.63a.42.42 0 0 1 .52-.28zM32 816.11a.42.42 0 0 1 .28.52l-2 6.63a.42.42 0 0 1-.52.28.42.42 0 0 1-.28-.52l2-6.63a.42.42 0 0 1 .52-.28z" fill="#77ccf2"/>
  <path d="M24.29 816.11a.42.42 0 0 1 .28.52l-2 6.63a.42.42 0 0 1-.52.28.42.42 0 0 1-.28-.52l2-6.63a.42.42 0 0 1 .52-.28zM29.56 816.11a.42.42 0 0 1 .28.52l-2 6.63a.42.42 0 0 1-.52.28.42.42 0 0 1-.32-.54l2-6.63a.42.42 0 0 1 .53-.27zM19.28 816.11a.42.42 0 0 1 .28.52l-2 6.63a.42.42 0 0 1-.52.28.42.42 0 0 1-.28-.52l2-6.63a.42.42 0 0 1 .52-.28z" fill="#fff"/>
  <rect x="29.58" y="819.4" width="7.77" height=".84" rx=".42" ry=".42" transform="rotate(-72.96 33.47 819.82)" fill="#fff"/>
  <path fill="#feda00" d="M24.25 809.91h2.82l-.84 2.34h1.45l-3.91 7.47.9-5.49h-1.25l.83-4.32"/>
  <path fill="#f47920" d="M23.68 809.35h2.83l-.84 2.33h1.44l-3.91 7.48.9-5.49h-1.25l.83-4.32"/>
  <circle cx="22.6" cy="1151.59" r="7.08" style="isolation:isolate" fill="#efeb60" opacity=".51"/>
  <circle cx="22.6" cy="1151.59" r="5.4" fill="#f6b31a" stroke="#feea02" stroke-miterlimit="10"/>
  <circle cx="24.44" cy="933.59" r="8.63" style="isolation:isolate" fill="#efeb60" opacity=".51"/>
  <circle cx="24.44" cy="933.59" r="6.59" fill="#f6b31a" stroke="#feea02" stroke-miterlimit="10"/>
  <circle cx="25.16" cy="967.84" r="9.91" style="isolation:isolate" fill="#43444d" opacity=".25"/>
  <path d="M29.65 969.14a.39.39 0 0 0 .38-.39v-1.31a.39.39 0 1 0-.77 0v1.31a.39.39 0 0 0 .39.39z" fill="#fff"/>
  <path d="M30.65 968.09a.39.39 0 0 0-.39-.38H29a.39.39 0 0 0 0 .77h1.31a.39.39 0 0 0 .34-.39zM17.18 962.66a.39.39 0 0 0 .38-.39V961a.39.39 0 1 0-.77 0v1.36a.39.39 0 0 0 .39.3z" fill="#fff"/>
  <path d="M18.22 961.61a.39.39 0 0 0-.39-.38h-1.31a.39.39 0 0 0 0 .77h1.31a.39.39 0 0 0 .39-.39zM28.08 961.61a.39.39 0 0 0 .38-.39v-1.31a.39.39 0 1 0-.77 0v1.31a.39.39 0 0 0 .39.39z" fill="#fff"/>
  <path d="M29.12 960.57a.39.39 0 0 0-.39-.38h-1.31a.39.39 0 1 0-.12.77h1.43a.39.39 0 0 0 .39-.39z" fill="#fff"/>
  <path d="M25.65 960.79a6.73 6.73 0 0 1 2.35-.12A6.74 6.74 0 0 0 30.9 973a6.75 6.75 0 1 1-5.25-12.21z" style="isolation:isolate" fill="#626472" opacity=".18"/>
  <path d="M23.38 961.46a6.67 6.67 0 0 1 2.33-.12 6.67 6.67 0 0 0 2.87 12.21 6.68 6.68 0 1 1-5.2-12.09z" fill="#fdfce9"/>
  <g opacity=".3" fill="#231f20">
    <path d="M31.24 937.17a6.4 6.4 0 0 0-11.72 2.15 3.74 3.74 0 0 1 2.87 1.83l-.49.28a3.71 3.71 0 0 0-3.67-1.59 3.69 3.69 0 0 0 1.32 7.16h11.16a4.91 4.91 0 0 0 .54-9.79zM15.74 934.58a4 4 0 0 0-4-3.32 4.14 4.14 0 0 0-3.25 1.55 3.1 3.1 0 0 1 2.44 1.58l-.52.23c-.63-1.3-2.64-1.3-3-1.3a3 3 0 0 0-2 2.8 3.07 3.07 0 0 0 3.14 3h7.05a2.26 2.26 0 1 0 .06-4.52z"/>
  </g>
  <path d="M30.11 936a6.4 6.4 0 0 0-11.72 2.13 3.74 3.74 0 0 1 2.87 1.87l-.49.28a3.71 3.71 0 0 0-3.67-1.59 3.69 3.69 0 0 0 1.32 7.14h11.14a4.92 4.92 0 1 0 .54-9.83zM14.65 933.45a4 4 0 0 0-4-3.32 4.14 4.14 0 0 0-3.25 1.55 3.1 3.1 0 0 1 2.44 1.58l-.52.23c-.59-1.3-2.6-1.33-2.91-1.32a3 3 0 0 0-2 2.8 3.07 3.07 0 0 0 3.14 3h7a2.26 2.26 0 0 0 .06-4.52z" fill="#d8d9d8"/>
  <path d="M21.66 947a.42.42 0 0 1 .28.52l-2 6.63a.42.42 0 0 1-.52.28.42.42 0 0 1-.28-.52l2-6.63a.42.42 0 0 1 .52-.28zM26.94 947a.42.42 0 0 1 .28.52l-2 6.63a.42.42 0 0 1-.52.28.42.42 0 0 1-.28-.52l2-6.63a.42.42 0 0 1 .52-.28zM16.65 947a.42.42 0 0 1 .28.52l-2 6.63a.42.42 0 0 1-.52.28.42.42 0 0 1-.28-.52l2-6.63a.42.42 0 0 1 .52-.28zM32 947a.42.42 0 0 1 .28.52l-2 6.63a.42.42 0 0 1-.52.28.42.42 0 0 1-.28-.52l2-6.63A.42.42 0 0 1 32 947z" fill="#77ccf2"/>
  <path d="M24.53 947a.42.42 0 0 1 .28.52l-2 6.65a.42.42 0 0 1-.52.28.42.42 0 0 1-.28-.52l2-6.65a.42.42 0 0 1 .52-.28zM29.54 947a.42.42 0 0 1 .28.52l-2 6.63a.42.42 0 0 1-.52.28.42.42 0 0 1-.28-.52l2-6.63a.42.42 0 0 1 .52-.28zM19.27 947a.42.42 0 0 1 .28.52l-2 6.63a.42.42 0 0 1-.52.28.42.42 0 0 1-.28-.52l2-6.63a.42.42 0 0 1 .52-.28z" fill="#fff"/>
  <rect x="29.58" y="950.32" width="7.77" height=".84" rx=".42" ry=".42" transform="rotate(-72.96 33.47 950.74)" fill="#fff"/>
  <path d="M21.66 1010a.42.42 0 0 1 .28.52l-2 6.63a.42.42 0 0 1-.52.28.42.42 0 0 1-.28-.52l2-6.63a.42.42 0 0 1 .52-.28zM26.94 1010a.42.42 0 0 1 .28.52l-2 6.63a.42.42 0 0 1-.52.28.42.42 0 0 1-.28-.52l2-6.63a.42.42 0 0 1 .52-.28zM16.65 1010a.42.42 0 0 1 .28.52l-2 6.63a.42.42 0 0 1-.52.28.42.42 0 0 1-.28-.52l2-6.63a.42.42 0 0 1 .52-.28zM32 1010a.42.42 0 0 1 .28.52l-2 6.63a.42.42 0 0 1-.52.28.42.42 0 0 1-.28-.52l2-6.63a.42.42 0 0 1 .52-.28z" fill="#77ccf2"/>
  <path d="M24.53 1010a.42.42 0 0 1 .28.52l-2 6.65a.42.42 0 0 1-.52.28.42.42 0 0 1-.29-.45l2-6.65a.42.42 0 0 1 .53-.35zM29.54 1010a.42.42 0 0 1 .28.52l-2 6.63a.42.42 0 0 1-.52.28.42.42 0 0 1-.28-.52l2-6.63a.42.42 0 0 1 .52-.28zM19.27 1010a.42.42 0 0 1 .28.52l-2 6.63a.42.42 0 0 1-.52.28.42.42 0 0 1-.28-.52l2-6.63a.42.42 0 0 1 .52-.28z" fill="#fff"/>
  <rect x="29.58" y="1013.36" width="7.77" height=".84" rx=".42" ry=".42" transform="rotate(-72.96 33.47 1013.78)" fill="#fff"/>
  <g opacity=".3" fill="#231f20">
    <path d="M31.24 970.43a6.4 6.4 0 0 0-11.72 2.13 3.74 3.74 0 0 1 2.87 1.83l-.49.28a3.71 3.71 0 0 0-3.67-1.59 3.69 3.69 0 0 0 1.32 7.14h11.16a4.91 4.91 0 0 0 .54-9.79zM15.74 967.83a4 4 0 0 0-4-3.32 4.14 4.14 0 0 0-3.25 1.55 3.1 3.1 0 0 1 2.44 1.58l-.52.23c-.59-1.3-2.6-1.33-2.91-1.32a3 3 0 0 0-2 2.8 3.07 3.07 0 0 0 3.14 3h7a2.26 2.26 0 0 0 .06-4.52z"/>
  </g>
  <path d="M30.11 969.32a6.4 6.4 0 0 0-11.72 2.13 3.74 3.74 0 0 1 2.87 1.83l-.49.28A3.71 3.71 0 0 0 17.1 972a3.69 3.69 0 0 0 1.32 7.14h11.14a4.91 4.91 0 0 0 .54-9.79zM14.65 966.7a4 4 0 0 0-4-3.32 4.14 4.14 0 0 0-3.25 1.55 3.1 3.1 0 0 1 2.44 1.58l-.52.23c-.59-1.3-2.6-1.33-2.91-1.32a3 3 0 0 0-2 2.8 3.07 3.07 0 0 0 3.14 3h7a2.26 2.26 0 0 0 .06-4.52z" fill="#d8d9d8"/>
  <path d="M21.65 980.28a.42.42 0 0 1 .28.52l-2 6.63a.42.42 0 0 1-.52.28.42.42 0 0 1-.28-.52l2-6.63a.42.42 0 0 1 .52-.28zM26.93 980.28a.42.42 0 0 1 .28.52l-2 6.63a.42.42 0 0 1-.52.28.42.42 0 0 1-.28-.52l2-6.63a.42.42 0 0 1 .52-.28zM16.64 980.27a.42.42 0 0 1 .28.52l-2 6.63a.42.42 0 0 1-.52.28.42.42 0 0 1-.28-.52l2-6.63a.42.42 0 0 1 .52-.28zM32 980.27a.42.42 0 0 1 .28.52l-2 6.63a.42.42 0 0 1-.52.28.42.42 0 0 1-.28-.52l2-6.63a.42.42 0 0 1 .52-.28z" fill="#77ccf2"/>
  <path d="M24.27 980.28a.42.42 0 0 1 .28.52l-2 6.63a.42.42 0 0 1-.52.28.42.42 0 0 1-.28-.52l2-6.63a.42.42 0 0 1 .52-.28zM29.55 980.27a.42.42 0 0 1 .28.52l-2 6.63a.42.42 0 0 1-.52.28.42.42 0 0 1-.28-.52l2-6.63a.42.42 0 0 1 .52-.28zM19.26 980.28a.42.42 0 0 1 .28.52l-2 6.63a.42.42 0 0 1-.52.28.42.42 0 0 1-.28-.52l2-6.63a.42.42 0 0 1 .52-.28z" fill="#fff"/>
  <rect x="29.58" y="983.58" width="7.77" height=".84" rx=".42" ry=".42" transform="rotate(-72.96 33.47 984.01)" fill="#fff"/>
  <circle cx="19.06" cy="852.15" r="4.36" style="isolation:isolate" fill="#fff" opacity=".8"/>
  <path d="M22.2 853.53l-2.38-1.37 2.38-1.37a.38.38 0 0 0 .14-.52.38.38 0 0 0-.52-.14l-2.38 1.37v-2.75a.39.39 0 1 0-.77 0v2.75l-2.38-1.37a.38.38 0 0 0-.38.66l2.38 1.37-2.38 1.37a.38.38 0 0 0 .38.66l2.36-1.37v2.75a.39.39 0 1 0 .77 0v-2.75l2.38 1.37a.38.38 0 0 0 .52-.14.38.38 0 0 0-.12-.52z" fill="#77ccf2"/>
  <g opacity=".3" fill="#231f20">
    <path d="M31.24 877.87A6.4 6.4 0 0 0 19.52 880a3.74 3.74 0 0 1 2.87 1.83l-.49.28a3.71 3.71 0 0 0-3.67-1.59 3.69 3.69 0 0 0 1.32 7.14h11.16a4.91 4.91 0 0 0 .54-9.79zM15.74 875.32a4 4 0 0 0-4-3.32 4.14 4.14 0 0 0-3.25 1.55 3.1 3.1 0 0 1 2.44 1.58l-.52.23c-.59-1.3-2.6-1.33-2.91-1.32a3 3 0 0 0-2 2.8 3.07 3.07 0 0 0 3.14 3h7a2.26 2.26 0 0 0 .06-4.52z"/>
  </g>
  <path d="M30.11 876.74a6.4 6.4 0 0 0-11.72 2.13 3.74 3.74 0 0 1 2.87 1.83l-.49.28a3.71 3.71 0 0 0-3.67-1.59 3.69 3.69 0 0 0 1.32 7.14h11.14a4.91 4.91 0 0 0 .54-9.79zM14.65 874.14a4 4 0 0 0-4-3.32 4.14 4.14 0 0 0-3.25 1.55A3.1 3.1 0 0 1 9.84 874l-.52.23c-.59-1.3-2.6-1.33-2.91-1.32a3 3 0 0 0-2 2.8 3.07 3.07 0 0 0 3.14 3h7a2.26 2.26 0 0 0 .06-4.52z" fill="#d8d9d8"/>
  <circle cx="19.26" cy="887.51" r="4.2" style="isolation:isolate" fill="#fff" opacity=".8"/>
  <path d="M22.29 888.83L20 887.51l2.29-1.32a.37.37 0 0 0 .13-.5.37.37 0 0 0-.5-.13l-2.27 1.31v-2.64a.37.37 0 0 0-.74 0v2.64l-2.26-1.32a.37.37 0 0 0-.37.64l2.29 1.32-2.29 1.32a.37.37 0 1 0 .34.66l2.29-1.32v2.64a.37.37 0 0 0 .74 0v-2.64l2.35 1.3a.37.37 0 0 0 .5-.13.37.37 0 0 0-.16-.5h-.05z" fill="#77ccf2"/>
  <circle cx="20.54" cy="945.82" r="3.41" style="isolation:isolate" fill="#fff" opacity=".8"/>
  <path d="M23 946.9l-1.86-1.07 1.86-1.07a.3.3 0 0 0 .11-.41.3.3 0 0 0-.41-.11l-1.85 1.08v-2.14a.3.3 0 0 0-.6 0v2.14l-1.86-1.07a.3.3 0 1 0-.3.52l1.91 1.07-1.86 1.07a.3.3 0 1 0 .3.52l1.86-1.11v2.14a.3.3 0 0 0 .6 0v-2.14l1.81 1.1a.3.3 0 0 0 .41-.11.3.3 0 0 0-.12-.41z" fill="#77ccf2"/>
  <circle cx="29.58" cy="945.82" r="3.41" style="isolation:isolate" fill="#fff" opacity=".8"/>
  <path d="M32 946.9l-1.86-1.07 1.86-1.07a.3.3 0 0 0 .11-.41.3.3 0 0 0-.41-.11l-1.86 1.08v-2.14a.3.3 0 0 0-.6 0v2.14l-1.86-1.07a.3.3 0 1 0-.3.52l1.92 1.07-1.86 1.07a.3.3 0 1 0 .3.52l1.87-1.11v2.14a.3.3 0 0 0 .6 0v-2.14l1.86 1.07a.3.3 0 0 0 .41-.11.3.3 0 0 0-.18-.38z" fill="#77ccf2"/>
  <circle cx="19.99" cy="978.39" r="3.48" style="isolation:isolate" fill="#fff" opacity=".8"/>
  <path d="M22.5 979.49l-1.85-1.1 1.9-1.09a.31.31 0 0 0 .11-.42.31.31 0 0 0-.42-.11l-1.9 1.09v-2.19a.31.31 0 0 0-.61 0v2.19l-1.9-1.09a.31.31 0 1 0-.38.49h.07l1.9 1.09-1.9 1.09a.31.31 0 0 0 .2.59h.07l1.82-1.09v2.19a.31.31 0 0 0 .61 0v-2.19l1.9 1.09a.31.31 0 0 0 .42-.11.31.31 0 0 0-.04-.43z" fill="#77ccf2"/>
  <circle cx="29.22" cy="978.39" r="3.48" style="isolation:isolate" fill="#fff" opacity=".8"/>
  <path d="M31.73 979.49l-1.9-1.09 1.9-1.09a.31.31 0 0 0 .11-.42.31.31 0 0 0-.42-.11l-1.9 1.09v-2.19a.31.31 0 0 0-.61 0v2.19L27 976.78a.31.31 0 1 0-.38.49h.07l1.9 1.09-1.9 1.09a.31.31 0 0 0 .2.59H27l1.9-1.09v2.19a.31.31 0 0 0 .61 0v-2.2l1.9 1.09a.31.31 0 0 0 .42-.11.31.31 0 0 0-.1-.43z" fill="#77ccf2"/>
  <g opacity=".3" fill="#231f20">
    <path d="M31.24 999.63a6.4 6.4 0 0 0-11.72 2.13 3.74 3.74 0 0 1 2.87 1.83l-.49.28a3.71 3.71 0 0 0-3.67-1.59 3.69 3.69 0 0 0 1.32 7.14h11.16a4.91 4.91 0 0 0 .54-9.79zM15.74 997a4 4 0 0 0-4-3.32 4.14 4.14 0 0 0-3.29 1.6 3.1 3.1 0 0 1 2.44 1.58l-.52.23c-.59-1.3-2.6-1.33-2.91-1.32a3 3 0 0 0-2 2.8 3.07 3.07 0 0 0 3.14 3h7.05a2.26 2.26 0 1 0 .06-4.52z"/>
  </g>
  <path d="M30.11 998.5a6.4 6.4 0 0 0-11.72 2.13 3.74 3.74 0 0 1 2.87 1.83l-.49.28a3.71 3.71 0 0 0-3.67-1.59 3.69 3.69 0 0 0 1.32 7.14h11.14a4.91 4.91 0 0 0 .54-9.79zM14.65 995.91a4 4 0 0 0-4-3.32 4.14 4.14 0 0 0-3.25 1.55 3.1 3.1 0 0 1 2.44 1.58l-.52.23c-.59-1.3-2.6-1.33-2.91-1.32a3 3 0 0 0-2 2.8 3.07 3.07 0 0 0 3.14 3h7a2.26 2.26 0 0 0 .06-4.52z" fill="#d8d9d8"/>
  <circle cx="20.58" cy="1008.31" r="3.12" style="isolation:isolate" fill="#fff" opacity=".8"/>
  <path d="M22.83 1009.32l-1.7-1 1.7-1a.28.28 0 0 0 .1-.37.28.28 0 0 0-.37-.1l-1.7 1v-2a.27.27 0 1 0-.55 0v2l-1.7-1a.27.27 0 1 0-.27.47l1.7 1-1.7 1a.27.27 0 1 0 .27.47l1.7-1v2a.27.27 0 1 0 .55 0v-2l1.7 1a.28.28 0 0 0 .37-.1.28.28 0 0 0-.1-.37z" fill="#77ccf2"/>
  <circle cx="28.86" cy="1008.31" r="3.12" style="isolation:isolate" fill="#fff" opacity=".8"/>
  <path d="M31.11 1009.32l-1.7-1 1.7-1a.28.28 0 0 0 .1-.37.28.28 0 0 0-.37-.1l-1.7 1v-2a.27.27 0 1 0-.55 0v2l-1.7-1a.27.27 0 1 0-.27.47l1.7 1-1.7 1a.27.27 0 1 0 .27.47l1.7-1v2a.27.27 0 1 0 .55 0v-2l1.7 1a.28.28 0 0 0 .37-.1.28.28 0 0 0-.1-.37z" fill="#77ccf2"/>
  <path fill="none" d="M0 1080.17h39.65v31.72H0z"/>
  <path fill="none" d="M0 1052.69h39.65v31.72H0z"/>
  <circle cx="24.44" cy="1030.38" r="8.63" style="isolation:isolate" fill="#efeb60" opacity=".51"/>
  <circle cx="24.44" cy="1030.38" r="6.59" fill="#f6b31a" stroke="#feea02" stroke-miterlimit="10"/>
  <circle cx="25.16" cy="1063.62" r="9.91" style="isolation:isolate" fill="#43444d" opacity=".25"/>
  <path d="M29.65 1064.92a.39.39 0 0 0 .38-.39v-1.31a.39.39 0 1 0-.77 0v1.31a.39.39 0 0 0 .39.39z" fill="#fff"/>
  <path d="M30.65 1063.88a.39.39 0 0 0-.39-.38H29a.39.39 0 0 0-.12.77h1.43a.39.39 0 0 0 .34-.39zM17.18 1058.45a.39.39 0 0 0 .38-.39v-1.31a.39.39 0 1 0-.77 0v1.31a.39.39 0 0 0 .39.39z" fill="#fff"/>
  <path d="M18.22 1057.4a.39.39 0 0 0-.39-.38h-1.31a.39.39 0 0 0 0 .77h1.31a.39.39 0 0 0 .39-.39zM28.08 1057.4a.39.39 0 0 0 .38-.39v-1.31a.39.39 0 1 0-.77 0v1.3a.39.39 0 0 0 .39.39z" fill="#fff"/>
  <path d="M29.12 1056.32a.39.39 0 0 0-.39-.38h-1.31a.39.39 0 0 0 0 .77h1.31a.39.39 0 0 0 .39-.39z" fill="#fff"/>
  <path d="M25.65 1056.57a6.73 6.73 0 0 1 2.35-.12 6.74 6.74 0 0 0 2.9 12.33 6.75 6.75 0 1 1-5.25-12.2z" style="isolation:isolate" fill="#626472" opacity=".18"/>
  <path d="M23.38 1057.25a6.67 6.67 0 0 1 2.33-.12 6.67 6.67 0 0 0 2.87 12.19 6.68 6.68 0 1 1-5.2-12.09z" fill="#fdfce9"/>
  <g opacity=".3" fill="#231f20">
    <path d="M31.24 1034a6.4 6.4 0 0 0-11.72 2.13 3.74 3.74 0 0 1 2.87 1.83l-.49.28a3.71 3.71 0 0 0-3.67-1.59 3.69 3.69 0 0 0 1.32 7.14h11.16a4.91 4.91 0 0 0 .54-9.79zM15.74 1031.32a4 4 0 0 0-4-3.32 4.14 4.14 0 0 0-3.25 1.55 3.1 3.1 0 0 1 2.44 1.58l-.52.23c-.59-1.3-2.6-1.33-2.91-1.32a3 3 0 0 0-2 2.8 3.07 3.07 0 0 0 3.14 3h7a2.26 2.26 0 0 0 .06-4.52z"/>
  </g>
  <path d="M30.11 1032.83a6.4 6.4 0 0 0-11.72 2.17 3.74 3.74 0 0 1 2.87 1.83l-.49.28a3.71 3.71 0 0 0-3.67-1.59 3.69 3.69 0 0 0 1.32 7.14h11.14a4.91 4.91 0 0 0 .54-9.79zM14.65 1030.23a4 4 0 0 0-4-3.32 4.14 4.14 0 0 0-3.25 1.55 3.1 3.1 0 0 1 2.44 1.54l-.52.23c-.59-1.3-2.6-1.33-2.91-1.32a3 3 0 0 0-2 2.8 3.07 3.07 0 0 0 3.14 3h7a2.26 2.26 0 0 0 .06-4.52z" fill="#d8d9d8"/>
  <g opacity=".3" fill="#231f20">
    <path d="M31.24 1067a6.4 6.4 0 0 0-11.72 2.13 3.74 3.74 0 0 1 2.87 1.83l-.49.28a3.71 3.71 0 0 0-3.67-1.59 3.69 3.69 0 0 0 1.32 7.14h11.16a4.91 4.91 0 0 0 .54-9.79zM15.74 1064.46a4 4 0 0 0-4-3.32 4.14 4.14 0 0 0-3.25 1.55 3.1 3.1 0 0 1 2.44 1.58l-.52.23c-.59-1.3-2.6-1.33-2.91-1.32a3 3 0 0 0-2 2.8 3.07 3.07 0 0 0 3.14 3h7a2.26 2.26 0 0 0 .06-4.52z"/>
  </g>
  <path d="M30.11 1065.92a6.4 6.4 0 0 0-11.72 2.08 3.74 3.74 0 0 1 2.87 1.83l-.49.28a3.71 3.71 0 0 0-3.67-1.59 3.69 3.69 0 0 0 1.32 7.14h11.14a4.91 4.91 0 0 0 .54-9.79zM14.65 1063.32a4 4 0 0 0-4-3.32 4.14 4.14 0 0 0-3.25 1.55 3.1 3.1 0 0 1 2.44 1.58l-.52.23c-.59-1.3-2.6-1.33-2.91-1.32a3 3 0 0 0-2 2.8 3.07 3.07 0 0 0 3.14 3h7a2.26 2.26 0 1 0 .1-4.52z" fill="#d8d9d8"/>
  <circle cx="19.08" cy="1045.09" r="4.36" style="isolation:isolate" fill="#fff" opacity=".8"/>
  <path d="M22.22 1046.46l-2.37-1.37 2.37-1.37a.38.38 0 0 0 .14-.52.38.38 0 0 0-.52-.14l-2.37 1.37v-2.74a.39.39 0 1 0-.77 0v2.74l-2.37-1.37a.38.38 0 1 0-.38.66l2.37 1.37-2.32 1.37a.38.38 0 1 0 .38.66l2.37-1.37v2.74a.39.39 0 1 0 .77 0v-2.74l2.37 1.37a.38.38 0 0 0 .52-.14.38.38 0 0 0-.14-.52h-.05z" fill="#77ccf2"/>
  <circle cx="30.64" cy="1045.09" r="4.36" style="isolation:isolate" fill="#fff" opacity=".8"/>
  <path d="M33.78 1046.46l-2.37-1.37 2.37-1.37a.38.38 0 0 0 .14-.52.38.38 0 0 0-.52-.14l-2.4 1.37v-2.74a.39.39 0 1 0-.77 0v2.74l-2.37-1.37a.38.38 0 1 0-.38.66l2.37 1.37-2.37 1.37a.38.38 0 1 0 .38.66l2.37-1.37v2.74a.39.39 0 1 0 .77 0v-2.74l2.37 1.37a.38.38 0 0 0 .52-.14.38.38 0 0 0-.14-.52z" fill="#77ccf2"/>
  <circle cx="19.08" cy="1076.78" r="4.36" style="isolation:isolate" fill="#fff" opacity=".8"/>
  <path d="M22.22 1078.15l-2.37-1.37 2.37-1.37a.38.38 0 0 0 .14-.52.38.38 0 0 0-.52-.14l-2.37 1.37v-2.74a.39.39 0 1 0-.77 0v2.74l-2.37-1.37a.38.38 0 1 0-.38.66l2.37 1.37-2.32 1.37a.38.38 0 1 0 .38.66l2.37-1.37v2.74a.39.39 0 1 0 .77 0v-2.74l2.37 1.37a.38.38 0 0 0 .52-.14.38.38 0 0 0-.14-.52h-.05z" fill="#77ccf2"/>
  <circle cx="30.64" cy="1076.78" r="4.36" style="isolation:isolate" fill="#fff" opacity=".8"/>
  <path d="M33.78 1078.15l-2.37-1.37 2.37-1.37a.38.38 0 0 0 .14-.52.38.38 0 0 0-.52-.14l-2.4 1.37v-2.74a.39.39 0 1 0-.77 0v2.74l-2.37-1.37a.38.38 0 1 0-.38.66l2.37 1.37-2.37 1.37a.38.38 0 1 0 .38.66l2.37-1.37v2.74a.39.39 0 1 0 .77 0v-2.74l2.37 1.37a.38.38 0 0 0 .52-.14.38.38 0 0 0-.14-.52z" fill="#77ccf2"/>
  <path fill="none" d="M0 1085h39.65v31.72H0z"/>
  <g opacity=".3" fill="#231f20">
    <path d="M31.24 1093.42a6.4 6.4 0 0 0-11.72 2.13 3.74 3.74 0 0 1 2.87 1.83l-.49.28a3.71 3.71 0 0 0-3.67-1.59 3.69 3.69 0 0 0 1.32 7.14h11.16a4.91 4.91 0 0 0 .54-9.79zM15.74 1090.83a4 4 0 0 0-4-3.32 4.14 4.14 0 0 0-3.25 1.55 3.1 3.1 0 0 1 2.44 1.58l-.52.23c-.59-1.3-2.6-1.33-2.91-1.32a3 3 0 0 0-2 2.8 3.07 3.07 0 0 0 3.14 3h7a2.26 2.26 0 0 0 .06-4.52z"/>
  </g>
  <path d="M30.11 1092.32a6.4 6.4 0 0 0-11.72 2.13 3.74 3.74 0 0 1 2.87 1.83l-.49.28a3.71 3.71 0 0 0-3.67-1.56 3.69 3.69 0 0 0 1.32 7.14h11.14a4.91 4.91 0 0 0 .54-9.79zM14.65 1089.69a4 4 0 0 0-4-3.32 4.14 4.14 0 0 0-3.25 1.55 3.1 3.1 0 0 1 2.44 1.58l-.52.23c-.59-1.3-2.6-1.33-2.91-1.32a3 3 0 0 0-2 2.8 3.07 3.07 0 0 0 3.14 3h7a2.26 2.26 0 0 0 .06-4.52z" fill="#d8d9d8"/>
  <circle cx="19.08" cy="1103.98" r="4.36" style="isolation:isolate" fill="#fff" opacity=".8"/>
  <path d="M22.22 1105.32l-2.37-1.32 2.37-1.37a.38.38 0 0 0 .14-.52.38.38 0 0 0-.52-.14l-2.38 1.4v-2.74a.39.39 0 1 0-.77 0v2.74l-2.37-1.37a.38.38 0 1 0-.38.66l2.37 1.37-2.37 1.34a.38.38 0 1 0 .38.66l2.37-1.37v2.74a.39.39 0 1 0 .77 0v-2.74l2.37 1.37a.38.38 0 0 0 .52-.14.38.38 0 0 0-.07-.53z" fill="#77ccf2"/>
  <circle cx="30.64" cy="1103.98" r="4.36" style="isolation:isolate" fill="#fff" opacity=".8"/>
  <path d="M33.78 1105.32l-2.37-1.32 2.37-1.37a.38.38 0 0 0 .14-.52.38.38 0 0 0-.52-.14l-2.38 1.4v-2.74a.39.39 0 1 0-.77 0v2.74l-2.37-1.37a.38.38 0 1 0-.38.66l2.37 1.37-2.37 1.34a.38.38 0 1 0 .38.66l2.37-1.37v2.74a.39.39 0 1 0 .77 0v-2.74l2.37 1.37a.38.38 0 0 0 .52-.14.38.38 0 0 0-.07-.53z" fill="#77ccf2"/>
  <circle cx="32.02" cy="1134.74" r="3.6" style="isolation:isolate" fill="#fff" opacity=".8"/>
  <path d="M34.65 1135.88l-2-1.13 2-1.13a.32.32 0 0 0 .12-.43.32.32 0 0 0-.43-.12l-2 1.13v-2.26a.32.32 0 0 0-.63 0v2.26l-2-1.13a.32.32 0 0 0-.38.52h.06l2 1.13-2 1.13a.32.32 0 0 0 .26.58h.06l2-1.13v2.26a.32.32 0 0 0 .63 0v-2.24l2 1.13a.32.32 0 0 0 .43-.12.32.32 0 0 0-.1-.44z" fill="#77ccf2"/>
  <circle cx="24" cy="1134.74" r="3.6" style="isolation:isolate" fill="#fff" opacity=".8"/>
  <path d="M26.6 1135.88l-2-1.13 2-1.13a.32.32 0 0 0 .12-.43.32.32 0 0 0-.43-.12l-2 1.13v-2.26a.32.32 0 0 0-.63 0v2.26l-2-1.13a.32.32 0 0 0-.38.52h.06l2 1.13-2 1.13a.32.32 0 0 0 .26.58h.06l2-1.13v2.26a.32.32 0 0 0 .63 0v-2.24l2 1.13a.32.32 0 0 0 .43-.12.32.32 0 0 0-.1-.44z" fill="#77ccf2"/>
  <circle cx="15.96" cy="1134.74" r="3.6" style="isolation:isolate" fill="#fff" opacity=".8"/>
  <path d="M18.55 1135.88l-2-1.13 2-1.13a.32.32 0 0 0 .12-.43.32.32 0 0 0-.43-.12l-2 1.13v-2.26a.32.32 0 0 0-.63 0v2.26l-2-1.13a.32.32 0 0 0-.38.52h.06l2 1.13-2 1.13a.32.32 0 0 0 .26.58h.06l2-1.13v2.26a.32.32 0 0 0 .63 0v-2.24l2 1.13a.32.32 0 0 0 .41-.13.32.32 0 0 0-.1-.44z" fill="#77ccf2"/>
  <path fill="none" d="M0 894.05h39.65v31.72H0z"/>
  <g opacity=".3" fill="#231f20">
    <path d="M31.24 906.74a6.4 6.4 0 0 0-11.72 2.13 3.74 3.74 0 0 1 2.87 1.83l-.49.28a3.71 3.71 0 0 0-3.67-1.59 3.69 3.69 0 0 0 1.32 7.14h11.16a4.91 4.91 0 0 0 .54-9.79zM15.74 904.15a4 4 0 0 0-4-3.32 4.14 4.14 0 0 0-3.25 1.55 3.1 3.1 0 0 1 2.44 1.62l-.52.23c-.59-1.3-2.6-1.33-2.91-1.32a3 3 0 0 0-2 2.8 3.07 3.07 0 0 0 3.14 3h7a2.26 2.26 0 0 0 .06-4.52z"/>
  </g>
  <path d="M30.11 905.61a6.4 6.4 0 0 0-11.72 2.13 3.74 3.74 0 0 1 2.87 1.83l-.49.28a3.71 3.71 0 0 0-3.67-1.59 3.69 3.69 0 0 0 1.32 7.14h11.14a4.91 4.91 0 0 0 .54-9.79zM14.65 903a4 4 0 0 0-4-3.32 4.14 4.14 0 0 0-3.25 1.55 3.1 3.1 0 0 1 2.44 1.58l-.52.23c-.59-1.3-2.6-1.33-2.91-1.32a3 3 0 0 0-2 2.8 3.07 3.07 0 0 0 3.14 3h7a2.26 2.26 0 0 0 .1-4.52z" fill="#d8d9d8"/>
  <circle cx="18.94" cy="915.42" r="4.25" style="isolation:isolate" fill="#fff" opacity=".8"/>
  <path d="M22 916.76l-2.35-1.34 2.35-1.34a.37.37 0 0 0 .14-.5.37.37 0 0 0-.5-.14l-2.32 1.34v-2.68a.38.38 0 0 0-.75 0v2.67l-2.32-1.34a.37.37 0 0 0-.37.65l2.32 1.34-2.32 1.34a.37.37 0 0 0 .37.65l2.32-1.34v2.67a.37.37 0 0 0 .75 0v-2.67l2.37 1.33a.37.37 0 0 0 .51-.13.37.37 0 0 0-.16-.5z" fill="#77ccf2"/>
  <path d="M31.24 1154.46a6.4 6.4 0 0 0-11.72 2.13 3.74 3.74 0 0 1 2.87 1.83l-.49.28a3.71 3.71 0 0 0-3.67-1.59 3.69 3.69 0 0 0 1.32 7.14h11.16a4.91 4.91 0 0 0 .54-9.79zM15.74 1151.87a4 4 0 0 0-4-3.32 4.14 4.14 0 0 0-3.25 1.55 3.1 3.1 0 0 1 2.44 1.58l-.52.23c-.59-1.3-2.6-1.33-2.91-1.32a3 3 0 0 0-2 2.8 3.07 3.07 0 0 0 3.14 3h7a2.26 2.26 0 0 0 .06-4.52z" fill="#919191"/>
  <path d="M21.65 1164.94a.42.42 0 0 1 .28.52l-2 6.63a.42.42 0 0 1-.52.28.42.42 0 0 1-.28-.52l2-6.63a.42.42 0 0 1 .52-.28zM26.91 1164.94a.42.42 0 0 1 .28.52l-2 6.63a.42.42 0 0 1-.52.28.42.42 0 0 1-.28-.52l2-6.63a.42.42 0 0 1 .52-.28zM16.63 1164.94a.42.42 0 0 1 .28.52l-2 6.63a.42.42 0 0 1-.52.28.42.42 0 0 1-.28-.52l2-6.63a.42.42 0 0 1 .52-.28zM32 1164.95a.42.42 0 0 1 .28.52l-2 6.63a.42.42 0 0 1-.52.28.42.42 0 0 1-.28-.52l2-6.63a.42.42 0 0 1 .52-.28z" fill="#77ccf2"/>
  <path d="M24.26 1164.94a.42.42 0 0 1 .28.52l-2 6.63a.42.42 0 0 1-.52.28.42.42 0 0 1-.28-.52l2-6.63a.42.42 0 0 1 .52-.28zM29.52 1164.94a.42.42 0 0 1 .28.52l-2 6.63a.42.42 0 0 1-.52.28.42.42 0 0 1-.28-.52l2-6.63a.42.42 0 0 1 .52-.28zM19.25 1164.94a.42.42 0 0 1 .28.52l-2 6.63a.42.42 0 0 1-.52.28.42.42 0 0 1-.28-.52l2-6.63a.42.42 0 0 1 .52-.28zM32 1171.85l2-6.63a.42.42 0 0 1 .52-.28.42.42 0 0 1 .28.52l-2 6.63a.42.42 0 0 1-.52.28.42.42 0 0 1-.28-.52z" fill="#fff"/>
  <path fill="#feda00" d="M22.97 1161.53h2.82l-.84 2.33h1.45l-3.91 7.48.9-5.49h-1.25l.83-4.32"/>
  <path fill="#f47920" d="M22.4 1160.96h2.83l-.84 2.33h1.44l-3.9 7.48.89-5.49h-1.25l.83-4.32"/>
  <path fill="#cf2d28" d="M28.31 1161.04h7.36v7.36h-7.36z"/>
  <path d="M34 1166.74a5 5 0 0 1-1.48.25 2.47 2.47 0 0 1-1.81-.6 2.15 2.15 0 0 1-.63-1.61 2.29 2.29 0 0 1 2.25-2.33h.29a3.06 3.06 0 0 1 1.23.22l-.21.8a2.46 2.46 0 0 0-1-.19 1.45 1.45 0 1 0 .42 2.83v-.93h-.69v-.78H34z" fill="#fff"/>
  <path d="M31.24 1189.06a6.4 6.4 0 0 0-11.72 2.13 3.74 3.74 0 0 1 2.87 1.83l-.49.28a3.71 3.71 0 0 0-3.67-1.59 3.69 3.69 0 0 0 1.32 7.14h11.16a4.91 4.91 0 0 0 .54-9.79zM15.74 1186.47a4 4 0 0 0-4-3.32 4.14 4.14 0 0 0-3.25 1.55 3.1 3.1 0 0 1 2.44 1.58l-.52.23c-.59-1.3-2.6-1.33-2.91-1.32a3 3 0 0 0-2 2.8 3.07 3.07 0 0 0 3.14 3h7a2.26 2.26 0 1 0 .06-4.52z" fill="#919191"/>
  <path d="M21.64 1199.54a.42.42 0 0 1 .28.52l-2 6.63a.42.42 0 0 1-.52.28.42.42 0 0 1-.28-.52l2-6.63a.42.42 0 0 1 .52-.28zM26.91 1199.54a.42.42 0 0 1 .28.52l-2 6.63a.42.42 0 0 1-.52.28.42.42 0 0 1-.28-.52l2-6.63a.42.42 0 0 1 .52-.28zM16.63 1199.55a.42.42 0 0 1 .28.52l-2 6.63a.42.42 0 0 1-.52.28.42.42 0 0 1-.28-.52l2-6.63a.42.42 0 0 1 .52-.28zM32 1199.55a.42.42 0 0 1 .28.52l-2 6.63a.42.42 0 0 1-.52.28.42.42 0 0 1-.28-.52l2-6.63a.42.42 0 0 1 .52-.28z" fill="#77ccf2"/>
  <path d="M24.27 1199.54a.42.42 0 0 1 .28.52l-2 6.63a.42.42 0 0 1-.52.28.42.42 0 0 1-.28-.52l2-6.63a.42.42 0 0 1 .52-.28zM29.52 1199.55a.42.42 0 0 1 .28.52l-2 6.63a.42.42 0 0 1-.52.28.42.42 0 0 1-.28-.52l2-6.63a.42.42 0 0 1 .52-.28zM19.26 1199.54a.42.42 0 0 1 .28.52l-2 6.63a.42.42 0 0 1-.52.28.42.42 0 0 1-.28-.52l2-6.63a.42.42 0 0 1 .52-.28zM32 1206.45l2-6.63a.42.42 0 0 1 .52-.28.42.42 0 0 1 .28.52l-2 6.63a.42.42 0 0 1-.52.28.42.42 0 0 1-.28-.52z" fill="#fff"/>
  <path fill="#feda00" d="M22.97 1196.13h2.82l-.84 2.33h1.45l-3.91 7.48.9-5.49h-1.25l.83-4.32"/>
  <path fill="#f47920" d="M22.4 1195.56h2.83l-.84 2.34h1.44l-3.9 7.48.89-5.49h-1.25l.83-4.33"/>
  <path fill="#cf2d28" d="M28.31 1195.73h7.36v7.36h-7.36z"/>
  <path d="M34 1201.43a5 5 0 0 1-1.48.25 2.47 2.47 0 0 1-1.81-.6 2.15 2.15 0 0 1-.63-1.61 2.29 2.29 0 0 1 2.25-2.33h.29a3.06 3.06 0 0 1 1.23.22l-.21.8a2.46 2.46 0 0 0-1-.19 1.45 1.45 0 1 0 .42 2.83v-.93h-.69v-.78H34z" fill="#fff"/>
  <path d="M30.11 1216.81a6.4 6.4 0 0 0-11.72 2.13 3.74 3.74 0 0 1 2.87 1.83l-.49.28a3.71 3.71 0 0 0-3.67-1.59 3.69 3.69 0 0 0 1.32 7.14h11.14a4.91 4.91 0 0 0 .54-9.79zM14.65 1214.22a4 4 0 0 0-4-3.32 4.14 4.14 0 0 0-3.25 1.55 3.1 3.1 0 0 1 2.44 1.55l-.52.23c-.59-1.3-2.6-1.33-2.91-1.32a3 3 0 0 0-2 2.8 3.07 3.07 0 0 0 3.14 3h7a2.26 2.26 0 0 0 .06-4.52z" fill="#919191"/>
  <path d="M20.51 1227.28a.42.42 0 0 1 .28.52l-2 6.63a.42.42 0 0 1-.52.28.42.42 0 0 1-.28-.52l2-6.63a.42.42 0 0 1 .52-.28zM25.77 1227.28a.42.42 0 0 1 .28.52l-2 6.63a.42.42 0 0 1-.52.28.42.42 0 0 1-.28-.52l2-6.63a.42.42 0 0 1 .52-.28zM15.49 1227.28a.42.42 0 0 1 .28.52l-2 6.63a.42.42 0 0 1-.52.28.42.42 0 0 1-.28-.52l2-6.63a.42.42 0 0 1 .52-.28zM30.64 1227.29a.42.42 0 0 1 .28.52l-2 6.65a.42.42 0 0 1-.52.28.42.42 0 0 1-.28-.52l2-6.65a.42.42 0 0 1 .52-.28z" fill="#77ccf2"/>
  <path d="M23.13 1227.28a.42.42 0 0 1 .28.52l-2 6.63a.42.42 0 0 1-.52.28.42.42 0 0 1-.28-.52l2-6.63a.42.42 0 0 1 .52-.28zM28.39 1227.28a.42.42 0 0 1 .28.52l-2 6.63a.42.42 0 0 1-.52.28.42.42 0 0 1-.28-.52l2-6.63a.42.42 0 0 1 .52-.28zM18 1227.29a.42.42 0 0 1 .28.52l-2 6.65a.42.42 0 0 1-.52.28.42.42 0 0 1-.28-.52l2-6.65a.42.42 0 0 1 .52-.28zM30.89 1234.19l2-6.63a.42.42 0 0 1 .52-.28.42.42 0 0 1 .28.52l-2 6.63a.42.42 0 0 1-.52.28.42.42 0 0 1-.28-.52z" fill="#fff"/>
  <path fill="#feda00" d="M21.83 1223.88h2.83l-.84 2.34h1.45l-3.91 7.47.9-5.49h-1.25l.82-4.32"/>
  <path fill="#f47920" d="M21.27 1223.32h2.82l-.84 2.33h1.45l-3.91 7.48.9-5.49h-1.25l.83-4.32"/>
  <path fill="#cf2d28" d="M28.96 1224.2h7.36v7.36h-7.36z"/>
  <path d="M34.59 1229.9a5 5 0 0 1-1.48.25 2.47 2.47 0 0 1-1.81-.6 2.15 2.15 0 0 1-.63-1.61 2.29 2.29 0 0 1 2.25-2.33h.29a3.06 3.06 0 0 1 1.23.22l-.21.8a2.46 2.46 0 0 0-1-.19 1.45 1.45 0 1 0 .42 2.87v-1H33v-.78h1.65z" fill="#fff"/>
  <path fill="none" d="M0 1271.3h39.65v31.72H0z"/>
  <circle cx="23.46" cy="1282.81" r="9.91" style="isolation:isolate" fill="#43444d" opacity=".25"/>
  <path d="M27.92 1284.1a.39.39 0 0 0 .38-.39v-1.31a.39.39 0 1 0-.77 0v1.31a.39.39 0 0 0 .39.39z" fill="#fff"/>
  <path d="M29 1283.06a.39.39 0 0 0-.39-.38h-1.35a.39.39 0 0 0 0 .77h1.31a.39.39 0 0 0 .4-.38zM15.48 1277.63a.39.39 0 0 0 .38-.39v-1.31a.39.39 0 1 0-.77 0v1.31a.39.39 0 0 0 .39.39z" fill="#fff"/>
  <path d="M16.52 1276.58a.39.39 0 0 0-.39-.38h-1.31a.39.39 0 0 0-.12.77h1.43a.39.39 0 0 0 .39-.39zM26.37 1276.58a.39.39 0 0 0 .38-.39v-1.31a.39.39 0 1 0-.77 0v1.31a.39.39 0 0 0 .39.39z" fill="#fff"/>
  <path d="M27.42 1275.54a.39.39 0 0 0-.39-.38h-1.31a.39.39 0 0 0-.12.77H27a.39.39 0 0 0 .39-.39z" fill="#fff"/>
  <path d="M23.71 1275.53a6.73 6.73 0 0 1 2.35-.12 6.74 6.74 0 0 0 2.9 12.33 6.75 6.75 0 1 1-5.25-12.2z" style="isolation:isolate" fill="#626472" opacity=".18"/>
  <path d="M21.65 1276.43a6.67 6.67 0 0 1 2.33-.12 6.67 6.67 0 0 0 2.87 12.21 6.68 6.68 0 1 1-5.2-12.09z" fill="#fdfce9"/>
  <circle cx="23.03" cy="1248.66" r="7.7" style="isolation:isolate" fill="#efeb60" opacity=".51"/>
  <circle cx="23.03" cy="1248.66" r="5.88" fill="#f6b31a" stroke="#feea02" stroke-miterlimit="10"/>
  <path d="M31.24 1251.39a6.4 6.4 0 0 0-11.72 2.13 3.74 3.74 0 0 1 2.87 1.83l-.49.28a3.71 3.71 0 0 0-3.67-1.59 3.69 3.69 0 0 0 1.32 7.14h11.16a4.91 4.91 0 0 0 .54-9.79zM15.74 1248.8a4 4 0 0 0-4-3.32 4.14 4.14 0 0 0-3.25 1.52 3.1 3.1 0 0 1 2.44 1.58l-.52.23c-.59-1.3-2.6-1.33-2.91-1.32a3 3 0 0 0-2 2.8 3.07 3.07 0 0 0 3.14 3h7a2.26 2.26 0 1 0 .06-4.52z" fill="#919191"/>
  <path fill="#feda00" d="M22.97 1258.46h2.82l-.84 2.33h1.45l-3.91 7.48.9-5.49h-1.25l.83-4.32"/>
  <path fill="#f47920" d="M22.4 1257.89h2.83l-.84 2.33h1.44l-3.9 7.48.89-5.49h-1.25l.83-4.32"/>
  <path d="M31.24 1284.83a6.4 6.4 0 0 0-11.72 2.17 3.74 3.74 0 0 1 2.87 1.83l-.49.28a3.71 3.71 0 0 0-3.67-1.59 3.69 3.69 0 0 0 1.32 7.14h11.16a4.91 4.91 0 0 0 .54-9.79zM15.74 1282.24a4 4 0 0 0-4-3.32 4.14 4.14 0 0 0-3.25 1.55 3.1 3.1 0 0 1 2.44 1.58l-.52.23c-.59-1.3-2.6-1.33-2.91-1.32a3 3 0 0 0-2 2.8 3.07 3.07 0 0 0 3.14 3h7a2.26 2.26 0 0 0 .06-4.52z" fill="#919191"/>
  <path fill="#feda00" d="M22.97 1291.9h2.82l-.84 2.33h1.45l-3.91 7.48.9-5.49h-1.25l.83-4.32"/>
  <path fill="#f47920" d="M22.4 1291.33h2.83l-.84 2.33h1.44l-3.9 7.48.89-5.49h-1.25l.83-4.32"/>
  <path fill="none" d="M0 1303.72h39.65v31.72H0z"/>
  <path d="M31.24 1313.45a6.4 6.4 0 0 0-11.72 2.13 3.74 3.74 0 0 1 2.87 1.83l-.49.28a3.71 3.71 0 0 0-3.67-1.59 3.69 3.69 0 0 0 1.32 7.14h11.16a4.91 4.91 0 0 0 .54-9.79zM15.74 1310.86a4 4 0 0 0-4-3.32 4.14 4.14 0 0 0-3.25 1.55 3.1 3.1 0 0 1 2.44 1.58l-.52.23c-.59-1.3-2.6-1.33-2.91-1.32a3 3 0 0 0-2 2.8 3.07 3.07 0 0 0 3.14 3h7a2.26 2.26 0 0 0 .06-4.52z" fill="#919191"/>
  <path fill="#feda00" d="M22.97 1320.52h2.82l-.84 2.33h1.45l-3.91 7.48.9-5.49h-1.25l.83-4.32"/>
  <path fill="#f47920" d="M22.4 1319.95h2.83l-.84 2.33h1.44l-3.9 7.48.89-5.49h-1.25l.83-4.32"/>
  <path fill="none" d="M0 1369.47h39.65v31.72H0z"/>
  <circle cx="23.46" cy="1380.97" r="9.91" style="isolation:isolate" fill="#43444d" opacity=".25"/>
  <path d="M27.92 1382.32a.39.39 0 0 0 .38-.39v-1.31a.39.39 0 1 0-.77 0v1.31a.39.39 0 0 0 .39.39z" fill="#fff"/>
  <path d="M29 1381.23a.39.39 0 0 0-.39-.38h-1.35a.39.39 0 0 0 0 .77h1.31a.39.39 0 0 0 .4-.38zM15.48 1375.79a.39.39 0 0 0 .38-.39v-1.31a.39.39 0 1 0-.77 0v1.31a.39.39 0 0 0 .39.39z" fill="#fff"/>
  <path d="M16.52 1374.75a.39.39 0 0 0-.39-.38h-1.31a.39.39 0 0 0-.12.77h1.43a.39.39 0 0 0 .39-.39zM26.37 1374.75a.39.39 0 0 0 .38-.39V1373a.39.39 0 1 0-.77 0v1.27a.39.39 0 0 0 .35.43z" fill="#fff"/>
  <path d="M27.42 1373.7a.39.39 0 0 0-.39-.38h-1.31a.39.39 0 0 0 0 .77H27a.39.39 0 0 0 .39-.39z" fill="#fff"/>
  <path d="M23.44 1374.27a6.73 6.73 0 0 1 2.35-.12 6.74 6.74 0 0 0 2.9 12.33 6.75 6.75 0 1 1-5.25-12.2z" style="isolation:isolate" fill="#626472" opacity=".18"/>
  <path d="M21.65 1374.59a6.67 6.67 0 0 1 2.33-.12 6.67 6.67 0 0 0 2.87 12.21 6.68 6.68 0 1 1-5.2-12.09z" fill="#fdfce9"/>
  <path fill="none" d="M0 1336.6h39.65v31.72H0z"/>
  <circle cx="21.51" cy="1345.5" r="8.26" style="isolation:isolate" fill="#efeb60" opacity=".51"/>
  <circle cx="21.51" cy="1345.5" r="6.3" fill="#f6b31a" stroke="#feea02" stroke-miterlimit="10"/>
  <path d="M31.24 1346.72a6.4 6.4 0 0 0-11.72 2.13 3.74 3.74 0 0 1 2.87 1.83l-.49.28a3.71 3.71 0 0 0-3.67-1.59 3.69 3.69 0 0 0 1.32 7.14h11.16a4.91 4.91 0 0 0 .54-9.79zM15.74 1344.13a4 4 0 0 0-4-3.32 4.14 4.14 0 0 0-3.29 1.51 3.1 3.1 0 0 1 2.44 1.58l-.52.23c-.59-1.3-2.6-1.33-2.91-1.32a3 3 0 0 0-2 2.8 3.07 3.07 0 0 0 3.14 3h7.05a2.26 2.26 0 1 0 .06-4.52z" fill="#919191"/>
  <path fill="#feda00" d="M22.97 1353.79h2.82l-.84 2.33h1.45l-3.91 7.48.9-5.49h-1.25l.83-4.32"/>
  <path fill="#f47920" d="M22.4 1353.22h2.83l-.84 2.34h1.44l-3.9 7.48.89-5.49h-1.25l.83-4.33"/>
  <path fill="#feda00" d="M29.2 1353.79h2.83l-.84 2.33h1.44l-3.9 7.48.9-5.49h-1.25l.82-4.32"/>
  <path fill="#f47920" d="M28.64 1353.22h2.82l-.84 2.34h1.45l-3.91 7.48.9-5.49h-1.25l.83-4.33"/>
  <path d="M31.24 1383a6.4 6.4 0 0 0-11.72 2.13 3.74 3.74 0 0 1 2.87 1.83l-.49.28a3.71 3.71 0 0 0-3.67-1.59 3.69 3.69 0 0 0 1.32 7.14h11.16a4.91 4.91 0 0 0 .54-9.79zM15.74 1380.4a4 4 0 0 0-4-3.32 4.14 4.14 0 0 0-3.25 1.55 3.1 3.1 0 0 1 2.44 1.58l-.52.23c-.59-1.3-2.6-1.33-2.91-1.32a3 3 0 0 0-2 2.8 3.07 3.07 0 0 0 3.14 3h7a2.26 2.26 0 1 0 .06-4.52z" fill="#919191"/>
  <path fill="#feda00" d="M22.97 1390.06h2.82l-.84 2.34h1.45l-3.91 7.48.9-5.49h-1.25l.83-4.33"/>
  <path fill="#f47920" d="M22.4 1389.5h2.83l-.84 2.33h1.44l-3.9 7.48.89-5.49h-1.25l.83-4.32"/>
  <path fill="#feda00" d="M29.2 1390.06h2.83l-.84 2.34h1.44l-3.9 7.48.9-5.49h-1.25l.82-4.33"/>
  <path fill="#f47920" d="M28.64 1389.5h2.82l-.84 2.33h1.45l-3.91 7.48.9-5.49h-1.25l.83-4.32"/>
  <path fill="none" d="M0 1402.34h39.65v31.72H0z"/>
  <path d="M31.24 1414.07a6.4 6.4 0 0 0-11.72 2.13 3.74 3.74 0 0 1 2.87 1.83l-.49.28a3.71 3.71 0 0 0-3.67-1.59 3.69 3.69 0 0 0 1.32 7.14h11.16a4.91 4.91 0 0 0 .54-9.79zM15.74 1411.48a4 4 0 0 0-4-3.32 4.14 4.14 0 0 0-3.25 1.55 3.1 3.1 0 0 1 2.44 1.58l-.52.23c-.59-1.3-2.6-1.33-2.91-1.32a3 3 0 0 0-2 2.8 3.07 3.07 0 0 0 3.14 3h7a2.26 2.26 0 1 0 .06-4.52z" fill="#919191"/>
  <path fill="#feda00" d="M22.97 1421.14h2.82l-.84 2.33h1.45l-3.91 7.48.9-5.49h-1.25l.83-4.32"/>
  <path fill="#f47920" d="M22.4 1420.57h2.83l-.84 2.34h1.44l-3.9 7.47.89-5.49h-1.25l.83-4.32"/>
  <path fill="#feda00" d="M29.2 1421.14h2.83l-.84 2.33h1.44l-3.9 7.48.9-5.49h-1.25l.82-4.32"/>
  <path fill="#f47920" d="M28.64 1420.57h2.82l-.84 2.34h1.45l-3.91 7.47.9-5.49h-1.25l.83-4.32"/>
</svg>
